<svg width="40" height="40" viewBox="0 0 40 40" fill="none" xmlns="http://www.w3.org/2000/svg">
<circle cx="20" cy="20" r="20" fill="#E5F1F7"/>
<g clip-path="url(#clip0_1600_100613)">
<path d="M29.2027 20.0266C29.2027 22.925 29.2018 25.8234 29.2027 28.7218C29.2027 29.9715 28.694 30.9384 27.6099 31.5808C27.1265 31.8675 26.5915 31.9948 26.0337 31.9953C22.01 31.9992 17.9862 32.0045 13.9625 31.9943C12.2332 31.9899 10.9067 30.7052 10.809 28.9803C10.8022 28.8593 10.8003 28.7373 10.8003 28.6163C10.7998 22.8682 10.8027 17.12 10.7969 11.3718C10.7959 10.5958 10.9592 9.8791 11.4368 9.25667C12.0636 8.43939 12.9105 8.0152 13.928 8.01131C18.0086 7.99673 22.0892 7.99625 26.1693 8.00985C27.7713 8.0152 29.1133 9.34219 29.1911 10.9432C29.1988 11.105 29.2022 11.2668 29.2022 11.4286C29.2027 14.2945 29.2022 17.1608 29.2022 20.0266H29.2027ZM20.0513 23.1378C21.2976 23.1378 22.5445 23.1174 23.7898 23.1446C24.7091 23.1645 25.1469 22.2467 24.9016 21.5655C24.5143 20.4897 23.8549 19.6306 22.8914 18.9985C22.4978 18.74 22.1101 18.6787 21.6776 18.8444C20.6067 19.2555 19.5329 19.2608 18.459 18.8571C17.9921 18.6816 17.5786 18.7419 17.1588 19.03C16.1651 19.7113 15.4945 20.6189 15.1437 21.7642C15.0985 21.9109 15.0956 22.0878 15.1282 22.2389C15.2497 22.8035 15.6831 23.1349 16.2875 23.1369C17.5416 23.1407 18.7962 23.1378 20.0508 23.1383L20.0513 23.1378ZM20.062 28.0153C21.5916 28.0153 23.1217 28.0162 24.6513 28.0148C25.2699 28.0143 25.729 27.5819 25.729 27.0075C25.729 26.4021 25.318 26.0246 24.6547 26.0246C23.1897 26.0241 21.7247 26.0246 20.2598 26.0246C18.6407 26.0246 17.0222 26.0236 15.4032 26.0255C14.9207 26.026 14.5228 26.3278 14.4149 26.7651C14.2516 27.4249 14.7215 28.0133 15.4246 28.0148C16.9707 28.0192 18.5164 28.0162 20.0625 28.0162L20.062 28.0153ZM17.4722 14.482C17.4722 15.9524 18.513 17.0719 19.8846 17.0767C21.4196 17.0821 22.6329 15.9334 22.6324 14.4752C22.6314 13.0792 21.4439 11.8888 20.0508 11.8878C18.6126 11.8864 17.4722 13.034 17.4726 14.482H17.4722Z" fill="#0078AD"/>
</g>
<defs>
<clipPath id="clip0_1600_100613">
<rect width="18.4058" height="24" fill="white" transform="translate(10.7969 8)"/>
</clipPath>
</defs>
</svg>
