<svg width="360" height="320" viewBox="0 0 360 320" fill="none" xmlns="http://www.w3.org/2000/svg">
<g opacity="0.1">
<path d="M379.942 60.4409C382.937 197.651 274.134 311.31 136.924 314.305C-0.285894 317.3 -113.945 208.498 -116.94 71.2875C-119.935 -65.9226 -11.1325 -179.581 126.078 -182.577C263.288 -185.572 376.946 -76.7692 379.942 60.4409ZM-114.456 71.2333C-111.49 207.071 1.03197 314.786 136.87 311.821C272.708 308.855 380.423 196.333 377.457 60.4951C374.492 -75.3429 261.97 -183.057 126.132 -180.092C-9.7062 -177.127 -117.421 -64.6047 -114.456 71.2333Z" fill="#80D1FF"/>
<path d="M379.942 60.4409C382.937 197.651 274.134 311.31 136.924 314.305C-0.285894 317.3 -113.945 208.498 -116.94 71.2875C-119.935 -65.9226 -11.1325 -179.581 126.078 -182.577C263.288 -185.572 376.946 -76.7692 379.942 60.4409ZM-114.456 71.2333C-111.49 207.071 1.03197 314.786 136.87 311.821C272.708 308.855 380.423 196.333 377.457 60.4951C374.492 -75.3429 261.97 -183.057 126.132 -180.092C-9.7062 -177.127 -117.421 -64.6047 -114.456 71.2333Z" fill="url(#paint0_linear_1021_28455)" fill-opacity="0.2"/>
<path d="M328.154 61.5714C330.525 170.18 244.402 260.146 135.794 262.517C27.1852 264.888 -62.7814 178.766 -65.1523 70.157C-67.5232 -38.4515 18.5995 -128.418 127.208 -130.789C235.817 -133.16 325.783 -47.0372 328.154 61.5714ZM-63.1858 70.1141C-60.8386 177.637 28.2283 262.898 135.751 260.551C243.273 258.204 328.535 169.137 326.187 61.6143C323.84 -45.9082 234.773 -131.17 127.251 -128.822C19.7285 -126.475 -65.5329 -37.4084 -63.1858 70.1141Z" fill="#80D1FF"/>
<path d="M328.154 61.5714C330.525 170.18 244.402 260.146 135.794 262.517C27.1852 264.888 -62.7814 178.766 -65.1523 70.157C-67.5232 -38.4515 18.5995 -128.418 127.208 -130.789C235.817 -133.16 325.783 -47.0372 328.154 61.5714ZM-63.1858 70.1141C-60.8386 177.637 28.2283 262.898 135.751 260.551C243.273 258.204 328.535 169.137 326.187 61.6143C323.84 -45.9082 234.773 -131.17 127.251 -128.822C19.7285 -126.475 -65.5329 -37.4084 -63.1858 70.1141Z" fill="url(#paint1_linear_1021_28455)" fill-opacity="0.2"/>
<path d="M270.768 62.8241C272.447 139.739 211.456 203.452 134.541 205.131C57.626 206.81 -6.08696 145.819 -7.76597 68.9043C-9.44498 -8.01064 51.5458 -71.7236 128.461 -73.4026C205.376 -75.0816 269.089 -14.0909 270.768 62.8241ZM-6.3733 68.8739C-4.71108 145.02 58.3648 205.401 134.511 203.738C210.656 202.076 271.037 139 269.375 62.8545C267.713 -13.2913 204.637 -73.6722 128.491 -72.01C52.3453 -70.3478 -8.03552 -7.2719 -6.3733 68.8739Z" fill="#80D1FF"/>
<path d="M270.768 62.8241C272.447 139.739 211.456 203.452 134.541 205.131C57.626 206.81 -6.08696 145.819 -7.76597 68.9043C-9.44498 -8.01064 51.5458 -71.7236 128.461 -73.4026C205.376 -75.0816 269.089 -14.0909 270.768 62.8241ZM-6.3733 68.8739C-4.71108 145.02 58.3648 205.401 134.511 203.738C210.656 202.076 271.037 139 269.375 62.8545C267.713 -13.2913 204.637 -73.6722 128.491 -72.01C52.3453 -70.3478 -8.03552 -7.2719 -6.3733 68.8739Z" fill="url(#paint2_linear_1021_28455)" fill-opacity="0.2"/>
</g>
<g clip-path="url(#clip0_1021_28455)">
<path d="M328.358 108.781C328.216 108.444 327.952 108.173 327.618 108.024C326.156 107.373 324.821 106.468 323.675 105.352C323.527 105.209 323.349 105.102 323.154 105.038C322.959 104.975 322.752 104.957 322.549 104.986C320.975 105.218 319.372 105.167 317.816 104.835C317.46 104.753 317.086 104.805 316.765 104.98C316.445 105.156 316.201 105.444 316.079 105.788L314.962 109.22C313.457 113.847 317.139 118.278 318.684 118.781C320.228 119.283 325.811 117.873 327.318 113.24L328.434 109.808C328.536 109.468 328.509 109.102 328.358 108.781ZM324.796 111.66L324.109 111.437L323.886 112.123C323.827 112.305 323.697 112.456 323.527 112.543C323.356 112.63 323.158 112.646 322.976 112.586C322.794 112.527 322.643 112.398 322.556 112.227C322.469 112.057 322.454 111.859 322.513 111.677L322.736 110.99L322.05 110.767C321.868 110.708 321.717 110.579 321.63 110.408C321.543 110.237 321.527 110.039 321.587 109.857C321.646 109.675 321.775 109.524 321.946 109.437C322.116 109.35 322.314 109.335 322.496 109.394L323.183 109.617L323.406 108.931C323.465 108.749 323.594 108.598 323.765 108.511C323.936 108.424 324.134 108.409 324.316 108.468C324.498 108.527 324.649 108.656 324.736 108.827C324.823 108.997 324.838 109.195 324.779 109.378L324.556 110.064L325.242 110.287C325.424 110.346 325.575 110.476 325.662 110.646C325.749 110.817 325.764 111.015 325.705 111.197C325.646 111.379 325.517 111.53 325.346 111.617C325.176 111.704 324.978 111.719 324.796 111.66Z" fill="#89DCFF"/>
</g>
<defs>
<linearGradient id="paint0_linear_1021_28455" x1="128.461" y1="-73.4026" x2="134.541" y2="205.131" gradientUnits="userSpaceOnUse">
<stop stop-color="white"/>
<stop offset="1" stop-color="white" stop-opacity="0"/>
</linearGradient>
<linearGradient id="paint1_linear_1021_28455" x1="128.461" y1="-73.4026" x2="134.541" y2="205.131" gradientUnits="userSpaceOnUse">
<stop stop-color="white"/>
<stop offset="1" stop-color="white" stop-opacity="0"/>
</linearGradient>
<linearGradient id="paint2_linear_1021_28455" x1="128.461" y1="-73.4026" x2="134.541" y2="205.131" gradientUnits="userSpaceOnUse">
<stop stop-color="white"/>
<stop offset="1" stop-color="white" stop-opacity="0"/>
</linearGradient>
<clipPath id="clip0_1021_28455">
<rect width="17.3238" height="17.3238" fill="white" transform="translate(315.359 101) rotate(18.0198)"/>
</clipPath>
</defs>
</svg>
