<svg width="40" height="40" viewBox="0 0 40 40" fill="none" xmlns="http://www.w3.org/2000/svg">
<circle cx="20" cy="20" r="19.6667" fill="#E5F1F7" stroke="#E5F1F7" stroke-width="0.666667"/>
<path d="M20 7.5C17.5278 7.5 15.111 8.23311 13.0554 9.60663C10.9998 10.9802 9.39761 12.9324 8.45151 15.2165C7.50541 17.5005 7.25788 20.0139 7.74019 22.4386C8.2225 24.8634 9.41301 27.0906 11.1612 28.8389C12.9093 30.587 15.1366 31.7775 17.5614 32.2599C19.9861 32.7421 22.4995 32.4946 24.7835 31.5485C27.0676 30.6024 29.0199 29.0003 30.3934 26.9446C31.7669 24.889 32.5 22.4723 32.5 20C32.5 18.3585 32.1766 16.733 31.5485 15.2165C30.9204 13.6999 29.9996 12.3219 28.8389 11.1612C27.6781 10.0004 26.3001 9.07969 24.7835 8.4515C23.267 7.82332 21.6415 7.5 20 7.5ZM25 17.5C25.3315 17.5 25.6495 17.6318 25.8839 17.8661C26.1182 18.1005 26.25 18.4185 26.25 18.75C26.25 19.0815 26.1182 19.3995 25.8839 19.6339C25.6495 19.8683 25.3315 20 25 20H23.575C23.3634 20.805 22.9543 21.5445 22.3845 22.1513C21.8148 22.7581 21.1026 23.2131 20.3125 23.475L23.1375 25.175C23.373 25.3148 23.5561 25.528 23.6586 25.7819C23.7612 26.0359 23.7775 26.3164 23.7051 26.5805C23.6327 26.8446 23.4756 27.0776 23.2579 27.2438C23.0401 27.4099 22.7739 27.4999 22.5 27.5C22.2756 27.4999 22.0555 27.4395 21.8625 27.325L15.6125 23.575C15.6125 23.575 15.5375 23.5 15.5 23.475C15.4289 23.4266 15.3657 23.3676 15.3125 23.3L15.175 23.1125C15.1344 23.041 15.1009 22.9656 15.075 22.8875C15.0679 22.8044 15.0679 22.7206 15.075 22.6375L15 22.5C15 22.5 15 22.5 15 22.4125C14.9942 22.3335 14.9942 22.254 15 22.175C15.0216 22.0933 15.0509 22.0138 15.0875 21.9375C15.0875 21.9375 15.0875 21.9375 15.0875 21.8625C15.0875 21.7875 15.1625 21.7875 15.1875 21.75C15.2359 21.6789 15.2949 21.6156 15.3625 21.5625C15.4241 21.5096 15.4911 21.4636 15.5625 21.425L15.7625 21.325H16.025L16.25 21.25H18.75C19.1862 21.2474 19.6143 21.1306 19.9915 20.9114C20.3686 20.692 20.6819 20.3779 20.9 20H15C14.6685 20 14.3505 19.8683 14.1161 19.6339C13.8817 19.3995 13.75 19.0815 13.75 18.75C13.75 18.4185 13.8817 18.1005 14.1161 17.8661C14.3505 17.6318 14.6685 17.5 15 17.5H20.9C20.6819 17.1222 20.3686 16.808 19.9915 16.5887C19.6143 16.3694 19.1862 16.2526 18.75 16.25H15C14.6685 16.25 14.3505 16.1183 14.1161 15.8839C13.8817 15.6495 13.75 15.3315 13.75 15C13.75 14.6685 13.8817 14.3505 14.1161 14.1161C14.3505 13.8817 14.6685 13.75 15 13.75H25C25.3315 13.75 25.6495 13.8817 25.8839 14.1161C26.1182 14.3505 26.25 14.6685 26.25 15C26.25 15.3315 26.1182 15.6495 25.8839 15.8839C25.6495 16.1183 25.3315 16.25 25 16.25H23.05C23.2831 16.6398 23.4599 17.0607 23.575 17.5H25Z" fill="#0078AD"/>
<path d="M11.3984 12.3984L27.6142 28.6142" stroke="#E5F1F7" stroke-width="2" stroke-linecap="round"/>
</svg>
