<svg width="40" height="40" viewBox="0 0 40 40" fill="none" xmlns="http://www.w3.org/2000/svg">
<circle cx="20" cy="20" r="20" fill="#E5F1F7"/>
<path d="M28.1673 10.666H11.834C10.9057 10.666 10.0155 11.0348 9.35911 11.6911C8.70273 12.3475 8.33398 13.2378 8.33398 14.166V25.8327C8.33398 26.7609 8.70273 27.6512 9.35911 28.3076C10.0155 28.9639 10.9057 29.3327 11.834 29.3327H28.1673C29.0956 29.3327 29.9858 28.9639 30.6422 28.3076C31.2986 27.6512 31.6673 26.7609 31.6673 25.8327V14.166C31.6673 13.2378 31.2986 12.3475 30.6422 11.6911C29.9858 11.0348 29.0956 10.666 28.1673 10.666ZM20.829 18.4943L16.1623 23.161C16.0539 23.2704 15.9248 23.3572 15.7827 23.4164C15.6405 23.4756 15.488 23.5061 15.334 23.5061C15.18 23.5061 15.0275 23.4756 14.8853 23.4164C14.7431 23.3572 14.6141 23.2704 14.5057 23.161L12.1723 20.8277C11.9526 20.608 11.8292 20.31 11.8292 19.9993C11.8292 19.6887 11.9526 19.3907 12.1723 19.171C12.392 18.9513 12.69 18.8279 13.0007 18.8279C13.3113 18.8279 13.6093 18.9513 13.829 19.171L15.334 20.6877L19.1723 16.8377C19.392 16.618 19.69 16.4946 20.0007 16.4946C20.3113 16.4946 20.6093 16.618 20.829 16.8377C21.0487 17.0574 21.1721 17.3553 21.1721 17.666C21.1721 17.9767 21.0487 18.2747 20.829 18.4943ZM25.834 25.8327C25.6032 25.8327 25.3777 25.7643 25.1858 25.6361C24.994 25.5079 24.8444 25.3257 24.7561 25.1125C24.6678 24.8993 24.6447 24.6647 24.6897 24.4384C24.7348 24.2121 24.8459 24.0042 25.009 23.8411C25.1722 23.6779 25.3801 23.5668 25.6064 23.5218C25.8327 23.4768 26.0673 23.4999 26.2804 23.5882C26.4936 23.6765 26.6758 23.826 26.804 24.0179C26.9322 24.2097 27.0007 24.4353 27.0007 24.666C27.0007 24.9754 26.8777 25.2722 26.6589 25.491C26.4401 25.7098 26.1434 25.8327 25.834 25.8327ZM25.834 21.166C25.6032 21.166 25.3777 21.0976 25.1858 20.9694C24.994 20.8412 24.8444 20.659 24.7561 20.4458C24.6678 20.2326 24.6447 19.9981 24.6897 19.7717C24.7348 19.5454 24.8459 19.3376 25.009 19.1744C25.1722 19.0112 25.3801 18.9001 25.6064 18.8551C25.8327 18.8101 26.0673 18.8332 26.2804 18.9215C26.4936 19.0098 26.6758 19.1593 26.804 19.3512C26.9322 19.543 27.0007 19.7686 27.0007 19.9993C27.0007 20.3088 26.8777 20.6055 26.6589 20.8243C26.4401 21.0431 26.1434 21.166 25.834 21.166ZM25.834 16.4993C25.6032 16.4993 25.3777 16.4309 25.1858 16.3027C24.994 16.1745 24.8444 15.9923 24.7561 15.7791C24.6678 15.566 24.6447 15.3314 24.6897 15.1051C24.7348 14.8788 24.8459 14.6709 25.009 14.5077C25.1722 14.3446 25.3801 14.2334 25.6064 14.1884C25.8327 14.1434 26.0673 14.1665 26.2804 14.2548C26.4936 14.3431 26.6758 14.4927 26.804 14.6845C26.9322 14.8764 27.0007 15.1019 27.0007 15.3327C27.0007 15.6421 26.8777 15.9388 26.6589 16.1576C26.4401 16.3764 26.1434 16.4993 25.834 16.4993Z" fill="#0078AD"/>
</svg>
