<svg width="40" height="40" viewBox="0 0 40 40" fill="none" xmlns="http://www.w3.org/2000/svg">
<circle cx="20" cy="20" r="20" fill="#E5F1F7"/>
<g clip-path="url(#clip0_1600_100632)">
<path d="M14.2025 29.0528C13.7032 29.0528 13.203 29.0725 12.7047 29.0486C11.8248 29.0059 10.989 28.1734 10.9557 27.2968C10.9252 26.4937 10.9351 25.6889 10.9243 24.8849C10.914 24.133 10.6412 23.487 10.1157 22.9512C9.63984 22.466 9.15466 21.9902 8.67557 21.5083C7.77364 20.6012 7.77505 19.4077 8.67838 18.4987C9.15747 18.0168 9.64219 17.5401 10.1185 17.0558C10.6449 16.5205 10.9149 15.8736 10.9248 15.1217C10.9355 14.3097 10.9271 13.4974 10.9571 12.6864C10.9885 11.8435 11.837 10.9969 12.685 10.9617C13.4566 10.9299 14.2301 10.9247 15.0031 10.9303C15.8465 10.9364 16.5482 10.6378 17.1393 10.0406C17.6831 9.49165 18.2185 8.93006 18.8021 8.42565C19.4687 7.84952 20.5333 7.85046 21.2008 8.42753C21.7845 8.93193 22.3198 9.49353 22.8636 10.0425C23.4552 10.6397 24.1579 10.936 25.0007 10.9299C25.7653 10.9242 26.5313 10.928 27.2954 10.9608C28.1762 10.9983 29.0069 11.8294 29.0435 12.7126C29.0768 13.5156 29.0683 14.3205 29.0777 15.1245C29.0861 15.8778 29.3585 16.5224 29.8849 17.0577C30.3612 17.5424 30.8459 18.0187 31.325 18.5006C32.226 19.4068 32.2251 20.604 31.3227 21.5111C30.8656 21.9705 30.4086 22.4308 29.9468 22.886C29.3613 23.4636 29.0716 24.1569 29.0749 24.9819C29.0782 25.7545 29.0763 26.528 29.0435 27.3C29.006 28.1813 28.1758 29.0111 27.2917 29.0481C26.4886 29.0814 25.6838 29.073 24.8798 29.0823C24.1265 29.0908 23.4819 29.3631 22.9461 29.8891C22.4614 30.3654 21.9851 30.8501 21.5032 31.3292C20.5966 32.2306 19.4012 32.2297 18.4936 31.3273C18.0338 30.8702 17.5734 30.4141 17.1182 29.9519C16.5412 29.3659 15.8474 29.0692 15.0223 29.0819C14.749 29.0861 14.4758 29.0823 14.202 29.0823C14.202 29.0725 14.202 29.0626 14.202 29.0528H14.2025ZM18.3905 21.6967C17.3798 20.6851 16.3893 19.6937 15.4063 18.7097C14.9459 19.17 14.4879 19.628 14.0449 20.071C15.5052 21.5294 16.9729 22.9957 18.4332 24.4546C20.9327 21.9536 23.4491 19.4354 25.9463 16.9363C25.4911 16.476 25.027 16.0063 24.5502 15.5239C22.5167 17.5617 20.4756 19.6074 18.3905 21.6967Z" fill="#0078AD"/>
</g>
<defs>
<clipPath id="clip0_1600_100632">
<rect width="24" height="24.0103" fill="white" transform="translate(8 7.99414)"/>
</clipPath>
</defs>
</svg>
