<svg width="101" height="32" viewBox="0 0 101 32" fill="none" xmlns="http://www.w3.org/2000/svg">
<path d="M38.649 4.15234V13.708H36.4512V4.15234H38.649Z" fill="white"/>
<path d="M47.0085 13.7087H45.0215V9.78194C45.0215 9.11806 44.9179 8.64487 44.707 8.35883C44.4962 8.0728 44.1745 7.93155 43.735 7.93155C43.2954 7.93155 42.9309 8.07633 42.6986 8.36589C42.4663 8.65546 42.3483 9.12865 42.3483 9.78194V13.7087H40.3613V6.56141H42.2661V7.55723H42.2947C42.527 7.18998 42.8344 6.89688 43.2096 6.685C43.5884 6.47313 43.9923 6.36719 44.4211 6.36719C45.2895 6.36719 45.9364 6.60378 46.3652 7.08051C46.7941 7.5537 47.0085 8.27055 47.0085 9.23106V13.7123V13.7087Z" fill="white"/>
<path d="M52.6251 8.46672C52.6072 8.19128 52.4929 7.99 52.2892 7.8664C52.0855 7.74281 51.7853 7.67925 51.3922 7.67925C51.0276 7.67925 50.756 7.73575 50.5738 7.85228C50.3915 7.96881 50.3022 8.13125 50.3022 8.34313C50.3022 8.5091 50.3522 8.64682 50.4558 8.75276C50.5595 8.8587 50.7096 8.94698 50.9097 9.02114C51.1098 9.09529 51.3814 9.16945 51.7281 9.2436L52.5393 9.4237C53.2755 9.58967 53.8223 9.84392 54.1761 10.19C54.5299 10.5361 54.7086 10.9845 54.7086 11.5389C54.7086 12.0934 54.5621 12.5454 54.2691 12.902C53.976 13.2587 53.5865 13.5129 53.1004 13.6683C52.6144 13.8237 52.0748 13.9049 51.4779 13.9049C50.8347 13.9049 50.2664 13.8166 49.7697 13.6436C49.2765 13.467 48.887 13.2092 48.6011 12.8632C48.3152 12.5171 48.1758 12.0898 48.1758 11.5848H50.0663C50.077 11.9062 50.2128 12.1569 50.4809 12.3299C50.7453 12.5065 51.0848 12.5913 51.4958 12.5913C51.8496 12.5913 52.1427 12.5206 52.3785 12.3829C52.6108 12.2452 52.7288 12.0369 52.7288 11.7614C52.7288 11.5213 52.6215 11.32 52.4071 11.1611C52.1927 10.9987 51.8532 10.868 51.385 10.7656L50.5881 10.5855C50.0556 10.4654 49.6232 10.3171 49.2944 10.137C48.962 9.95692 48.719 9.73799 48.5582 9.4802C48.4009 9.22242 48.3187 8.90813 48.3187 8.54088C48.3187 8.07122 48.451 7.67572 48.7118 7.35084C48.9727 7.02949 49.3373 6.7823 49.8018 6.61633C50.27 6.45036 50.8132 6.36914 51.4386 6.36914C52.3893 6.36914 53.129 6.54924 53.6579 6.90943C54.1833 7.26962 54.4656 7.78872 54.5049 8.47379H52.6287L52.6251 8.46672Z" fill="white"/>
<path d="M57.8366 10.487C57.8366 11.1508 57.9403 11.624 58.1511 11.9101C58.362 12.1961 58.6836 12.3374 59.1232 12.3374C59.5628 12.3374 59.9237 12.1926 60.1596 11.903C60.3919 11.6134 60.5098 11.1402 60.5098 10.487V6.56017H62.4968V13.7075H60.592V12.7117H60.5634C60.3311 13.0789 60.0238 13.372 59.6485 13.5839C59.2733 13.7958 58.8659 13.9017 58.437 13.9017C57.5686 13.9017 56.9217 13.6651 56.4929 13.1884C56.064 12.7152 55.8496 11.9983 55.8496 11.0378V6.55664H57.8366V10.4834V10.487Z" fill="white"/>
<path d="M68.618 8.2725C68.5537 8.25485 68.4679 8.23719 68.3678 8.22306C68.2642 8.20894 68.1427 8.20188 68.0033 8.20188C67.3422 8.20188 66.8454 8.41022 66.5131 8.82338C66.1807 9.23654 66.0163 9.79095 66.0163 10.4831V13.7036H64.0293V6.55983H65.9198V7.88759H65.9484C66.1164 7.42853 66.3844 7.05774 66.7525 6.7823C67.1206 6.50686 67.5495 6.36914 68.0319 6.36914C68.2571 6.36914 68.45 6.39386 68.618 6.43977V8.27956V8.2725Z" fill="white"/>
<path d="M73.8431 9.02121C73.8431 8.55155 73.7538 8.20902 73.5715 7.99008C73.3893 7.77467 73.0748 7.6652 72.628 7.6652C72.2349 7.6652 71.9383 7.73583 71.731 7.87355C71.5237 8.01127 71.4058 8.2302 71.3665 8.5233H69.3938C69.4295 7.82411 69.744 7.28735 70.3301 6.91304C70.9162 6.53872 71.7167 6.35156 72.7245 6.35156C73.7967 6.35156 74.5829 6.57756 75.0832 7.02957C75.5835 7.48157 75.8337 8.19136 75.8337 9.15893V13.7072H74.0433L73.9325 12.782H73.9039C73.7466 13.1034 73.4786 13.3718 73.0998 13.5836C72.721 13.7955 72.2492 13.9014 71.681 13.9014C71.1771 13.9014 70.7375 13.8132 70.3587 13.6401C69.9799 13.4671 69.6904 13.2058 69.4831 12.8668C69.2794 12.5242 69.1758 12.1146 69.1758 11.6344C69.1758 10.8328 69.4867 10.243 70.105 9.86519C70.7268 9.48734 71.6131 9.29665 72.771 9.29665H73.8503V9.02121H73.8431ZM73.0319 10.4584C72.4243 10.4584 71.9633 10.5361 71.6453 10.695C71.3272 10.8504 71.1699 11.1153 71.1699 11.4825C71.1699 11.8039 71.27 12.0475 71.4701 12.21C71.6703 12.3724 71.9419 12.4536 72.2885 12.4536C72.5887 12.4536 72.8568 12.3936 73.0926 12.2735C73.3321 12.1535 73.5143 11.9804 73.6466 11.7544C73.7788 11.5284 73.8431 11.253 73.8431 10.9316V10.462H73.0319V10.4584Z" fill="white"/>
<path d="M84.0066 13.7087H82.0196V9.78194C82.0196 9.11806 81.9159 8.64487 81.7051 8.35883C81.4942 8.0728 81.1726 7.93155 80.733 7.93155C80.2934 7.93155 79.9289 8.07633 79.6966 8.36589C79.4643 8.65546 79.3464 9.12865 79.3464 9.78194V13.7087H77.3594V6.56141H79.2642V7.55723H79.2928C79.5251 7.18998 79.8324 6.89688 80.2077 6.685C80.5865 6.47313 80.9903 6.36719 81.4192 6.36719C82.2876 6.36719 82.9344 6.60378 83.3633 7.08051C83.7921 7.5537 84.0066 8.27055 84.0066 9.23106V13.7123V13.7087Z" fill="white"/>
<path d="M90.2178 8.85674C90.182 8.5248 90.0534 8.27761 89.8318 8.11164C89.6102 7.94567 89.31 7.86445 88.9277 7.86445C88.388 7.86445 87.9627 8.0622 87.6625 8.45771C87.3588 8.85321 87.2087 9.39703 87.2087 10.0892C87.2087 10.7813 87.3516 11.3745 87.634 11.7912C87.9199 12.2044 88.3344 12.4127 88.8848 12.4127C89.2779 12.4127 89.5924 12.3174 89.8282 12.1232C90.0677 11.929 90.2071 11.6394 90.2535 11.251H92.1691C92.1047 11.8124 91.9225 12.2927 91.6223 12.6882C91.3221 13.0837 90.9325 13.3874 90.4465 13.5922C89.9605 13.8005 89.403 13.9029 88.7668 13.9029C88.0306 13.9029 87.3945 13.744 86.8549 13.4262C86.3188 13.1084 85.9114 12.667 85.6291 12.1055C85.3503 11.544 85.2109 10.9084 85.2109 10.1986C85.2109 9.42528 85.3682 8.7508 85.6862 8.17167C86.0043 7.59607 86.4439 7.15113 87.0085 6.83685C87.5732 6.52256 88.22 6.36719 88.9455 6.36719C89.5531 6.36719 90.0891 6.46959 90.5537 6.67088C91.0183 6.87216 91.39 7.16173 91.6652 7.53604C91.9403 7.91036 92.0904 8.34824 92.119 8.85674H90.2035H90.2178Z" fill="white"/>
<path d="M100.014 10.6114H94.9356C94.9642 11.2188 95.125 11.6743 95.4252 11.9745C95.7218 12.2746 96.1543 12.423 96.7118 12.423C97.0942 12.423 97.4122 12.3488 97.6624 12.2005C97.9161 12.0522 98.0698 11.865 98.1234 11.632H99.8853C99.6887 12.37 99.3099 12.9315 98.7452 13.3199C98.1806 13.7083 97.4694 13.899 96.6117 13.899C95.8648 13.899 95.2179 13.7437 94.6676 13.4364C94.1172 13.1292 93.6955 12.6913 93.4025 12.1228C93.1094 11.5543 92.9629 10.8939 92.9629 10.1382C92.9629 9.42844 93.113 8.78574 93.4168 8.21014C93.7205 7.63454 94.1458 7.18254 94.689 6.85413C95.2358 6.52572 95.8576 6.36328 96.5581 6.36328C97.305 6.36328 97.9376 6.53278 98.4558 6.86825C98.974 7.20373 99.3671 7.66986 99.6315 8.25958C99.896 8.8493 100.032 9.51672 100.032 10.2653L100.018 10.6114H100.014ZM98.0412 9.3684C97.9483 8.35493 97.4444 7.84642 96.5295 7.84642C96.0721 7.84642 95.7075 7.98061 95.4324 8.24899C95.1572 8.51736 94.9928 8.88815 94.9356 9.3684H98.0412Z" fill="white"/>
<path d="M44.1452 19.9425C44.1452 20.4122 44.0344 20.8077 43.8164 21.1325C43.5984 21.4539 43.2732 21.7223 42.8443 21.9342V21.9624C43.4304 22.1284 43.8735 22.4179 44.1666 22.8276C44.4596 23.2372 44.6062 23.7457 44.6062 24.3566C44.6062 24.9675 44.4525 25.4654 44.1452 25.8857C43.8378 26.3059 43.4233 26.6202 42.9051 26.825C42.3869 27.0333 41.8222 27.1357 41.2039 27.1357H36.4473V17.5801H41.0789C43.1231 17.5801 44.1452 18.3676 44.1452 19.946V19.9425ZM41.69 21.1608C41.908 20.9772 42.0188 20.6982 42.0188 20.3309C42.0188 19.6318 41.5577 19.2786 40.6321 19.2786H38.6451V21.4362H40.7572C41.1575 21.4362 41.4684 21.3444 41.6864 21.1608H41.69ZM42.0188 25.13C42.2796 24.9287 42.4119 24.6215 42.4119 24.2189C42.4119 23.7845 42.2832 23.4597 42.0259 23.2372C41.7686 23.0147 41.4076 22.9053 40.9431 22.9053H38.6487V25.4372H40.8895C41.3826 25.4372 41.7615 25.3348 42.0223 25.1335L42.0188 25.13Z" fill="white"/>
<path d="M50.495 21.7018C50.4306 21.6842 50.3449 21.6665 50.2448 21.6524C50.1412 21.6383 50.0197 21.6312 49.8803 21.6312C49.2191 21.6312 48.7224 21.8395 48.39 22.2527C48.0577 22.6659 47.8933 23.2203 47.8933 23.9124V27.1329H45.9062V19.9856H47.7968V21.3134H47.8254C47.9933 20.8543 48.2614 20.4835 48.6295 20.2081C48.9976 19.9326 49.4264 19.7949 49.9089 19.7949C50.134 19.7949 50.327 19.8196 50.495 19.8655V21.7053V21.7018Z" fill="white"/>
<path d="M57.8871 25.5505C57.5797 26.1191 57.1509 26.557 56.6005 26.8642C56.0501 27.1714 55.414 27.3268 54.6957 27.3268C53.9774 27.3268 53.3162 27.1714 52.7659 26.8571C52.2155 26.5428 51.7902 26.1049 51.4936 25.5364C51.1934 24.9679 51.0469 24.3111 51.0469 23.566C51.0469 22.8209 51.197 22.1499 51.4936 21.5814C51.7938 21.0128 52.2155 20.575 52.7659 20.2607C53.3162 19.9464 53.9595 19.791 54.6957 19.791C55.4319 19.791 56.0752 19.9464 56.6255 20.2607C57.1759 20.575 57.6012 21.0164 57.8978 21.5884C58.1944 22.1605 58.3445 22.8209 58.3445 23.566C58.3445 24.3111 58.1908 24.982 57.8835 25.5505H57.8871ZM55.9358 25.2398C56.2217 24.8443 56.3611 24.2863 56.3611 23.566C56.3611 22.9021 56.2288 22.3547 55.968 21.9274C55.7071 21.5002 55.2782 21.2847 54.6814 21.2847C54.1596 21.2847 53.7522 21.4825 53.4627 21.878C53.1733 22.2735 53.0303 22.8385 53.0303 23.566C53.0303 24.2934 53.1733 24.8549 53.4556 25.2468C53.7415 25.6388 54.1525 25.833 54.6957 25.833C55.2389 25.833 55.6499 25.6353 55.9358 25.2398Z" fill="white"/>
<path d="M61.6605 22.5704H61.6891L64.0692 19.9855H66.3922L63.3545 23.0542C63.6154 23.1107 63.8727 23.2484 64.1228 23.4674C64.373 23.6899 64.6982 24.0783 65.0949 24.6362C65.4916 25.1942 66.0241 26.0276 66.6959 27.1329H64.3158C63.8012 26.2288 63.4402 25.6073 63.2258 25.2648C63.0114 24.9223 62.822 24.6857 62.6576 24.5444C62.4932 24.4067 62.3109 24.3361 62.1037 24.3361L61.6569 24.7775V27.1293H59.6699V17.2559H61.6569V22.5669L61.6605 22.5704Z" fill="white"/>
<path d="M69.5006 18.4391C69.4041 18.605 69.2648 18.7357 69.0861 18.8346C68.9074 18.9299 68.7073 18.9794 68.4857 18.9794C68.2641 18.9794 68.0604 18.9299 67.8853 18.8346C67.7066 18.7392 67.5708 18.605 67.4707 18.4391C67.3742 18.2731 67.3242 18.0859 67.3242 17.8705C67.3242 17.6551 67.3742 17.468 67.4707 17.302C67.5672 17.136 67.7066 17.0054 67.8853 16.9065C68.064 16.8112 68.2641 16.7617 68.4857 16.7617C68.7073 16.7617 68.911 16.8112 69.0861 16.9065C69.2648 17.0018 69.4006 17.136 69.5006 17.302C69.5971 17.468 69.6472 17.6587 69.6472 17.8705C69.6472 18.0824 69.5971 18.2731 69.5006 18.4391ZM69.4792 19.9893V27.1366H67.4922V19.9893H69.4792Z" fill="white"/>
<path d="M77.7097 27.1365H75.7227V23.2097C75.7227 22.5458 75.619 22.0726 75.4082 21.7866C75.1973 21.5005 74.8757 21.3593 74.4361 21.3593C73.9966 21.3593 73.632 21.5041 73.3997 21.7936C73.1674 22.0832 73.0495 22.5564 73.0495 23.2097V27.1365H71.0625V19.9891H72.9673V20.985H72.9959C73.2282 20.6177 73.5355 20.3246 73.9108 20.1127C74.2896 19.9009 74.6934 19.7949 75.1223 19.7949C75.9907 19.7949 76.6376 20.0315 77.0664 20.5082C77.4953 20.9814 77.7097 21.6983 77.7097 22.6588V27.14V27.1365Z" fill="white"/>
<path d="M84.0597 20.9387V19.9852H85.9645V26.6911C85.9645 27.3268 85.8323 27.8812 85.5642 28.3508C85.2998 28.8205 84.8924 29.1878 84.3456 29.4491C83.7988 29.7104 83.1162 29.8446 82.2943 29.8446C81.7046 29.8446 81.1828 29.7598 80.7182 29.5903C80.2572 29.4208 79.8891 29.1772 79.6211 28.8558C79.3495 28.538 79.203 28.1566 79.1744 27.7152H81.1471C81.2114 27.9907 81.3579 28.1955 81.5867 28.3226C81.8154 28.4532 82.1084 28.5168 82.4622 28.5168C82.9768 28.5168 83.37 28.3756 83.6451 28.0966C83.9203 27.8141 84.0561 27.4115 84.0561 26.8854V26.0979H84.0275C83.8417 26.4475 83.5629 26.7194 83.1948 26.9136C82.8267 27.1078 82.4086 27.2032 81.944 27.2032C81.29 27.2032 80.7397 27.0478 80.293 26.7335C79.8462 26.4192 79.5103 25.9814 79.2852 25.4199C79.06 24.8584 78.9492 24.2086 78.9492 23.4706C78.9492 22.8173 79.0672 22.2099 79.2994 21.652C79.5317 21.0941 79.8784 20.6456 80.3358 20.3031C80.7933 19.9605 81.3329 19.791 81.9583 19.791C82.4515 19.791 82.8696 19.8864 83.202 20.0735C83.5379 20.2642 83.8131 20.5502 84.0275 20.9387H84.0561H84.0597ZM81.3186 25.0809C81.5688 25.5011 81.9512 25.7094 82.4658 25.7094C82.8017 25.7094 83.0912 25.6176 83.3342 25.434C83.5772 25.2504 83.7595 24.9997 83.8882 24.6818C84.0168 24.364 84.0776 24.0038 84.0776 23.5977C84.0776 22.9621 83.9525 22.4183 83.7059 21.9663C83.4593 21.5143 83.0412 21.2883 82.4551 21.2883C82.137 21.2883 81.8654 21.3801 81.6367 21.5637C81.408 21.7473 81.2364 22.0016 81.1185 22.3229C81.0006 22.6443 80.9434 23.0186 80.9434 23.4424C80.9434 24.1168 81.0685 24.6607 81.3222 25.0809H81.3186Z" fill="white"/>
<g clip-path="url(#clip0_1600_100831)">
<path d="M17.2135 0C17.3603 0.0771382 17.5258 0.0493684 17.6819 0.0647961C20.2079 0.293125 22.5621 1.04908 24.7041 2.38203C28.504 4.74863 30.9394 8.09951 31.9854 12.4162C32.4256 14.2335 32.5068 16.0756 32.2758 17.93C31.8417 21.4074 30.4086 24.4312 27.9794 26.9799C25.519 29.5563 22.5059 31.1422 18.9777 31.7686C18.4281 31.8673 17.8692 31.929 17.3103 31.963C17.276 31.963 17.2323 31.9537 17.2167 32H17.1417C17.0699 31.9599 16.9887 31.9907 16.9138 31.9815C16.8295 31.9907 16.7389 31.9599 16.6546 32H16.0208C15.9084 31.9691 15.796 31.9691 15.6836 32H15.5712C15.4838 31.9691 15.3963 31.9691 15.3089 32H15.1965C14.9342 31.9537 14.6657 31.9753 14.4034 31.9475C12.9078 31.7871 11.4653 31.4261 10.0758 30.8614C8.42725 30.1919 6.93164 29.2817 5.58279 28.1277C4.20583 26.949 3.06305 25.579 2.15445 24.0239C1.13032 22.2744 0.468379 20.4015 0.162389 18.4021C0.093697 17.9516 0.0843299 17.5011 0.03125 17.0506V16.8655C0.0718405 16.7945 0.040617 16.7205 0.0499841 16.6495C0.040617 16.5878 0.0687182 16.5199 0.03125 16.4613V15.5387C0.0718405 15.4801 0.040617 15.4122 0.0499841 15.3505C0.040617 15.2795 0.0718405 15.2024 0.03125 15.1345V14.9494C0.0780852 14.7025 0.0593511 14.4495 0.0874523 14.2027C0.23108 12.8821 0.543315 11.6016 1.01479 10.3581C1.55496 8.9326 2.29183 7.612 3.2098 6.39013C3.55638 5.93038 3.93419 5.50149 4.32448 5.07878C5.23933 4.08524 6.27907 3.2398 7.41561 2.5147C8.6864 1.70321 10.0477 1.07376 11.4996 0.64179C12.4551 0.357921 13.4293 0.160447 14.419 0.052454C14.6907 0.0246842 14.9623 0.0431974 15.2308 0H15.3058C15.4057 0.0308553 15.5056 0.0308553 15.6055 0H15.6805C15.7929 0.0308553 15.9053 0.0308553 16.0177 0H16.6515C16.7358 0.0401119 16.8264 0.00925658 16.9138 0.0185132C17.0012 0.00925658 17.0918 0.0401119 17.1761 0H17.2135V0Z" fill="#E5F1F7"/>
<path d="M13.0918 14.3471C13.0793 15.4055 13.1199 16.4638 13.0668 17.5191C13.0356 18.1608 12.9232 18.7872 12.6921 19.392C12.2519 20.5274 11.4494 21.2988 10.2661 21.6352C8.81418 22.0517 7.35604 22.0178 5.91351 21.5549C5.66373 21.4747 5.43267 21.3513 5.21411 21.2093C3.92458 20.3701 4.08382 18.6422 5.08921 17.8986C5.14542 17.8585 5.20162 17.8214 5.25782 17.7844C5.40769 17.6795 5.51385 17.6795 5.65748 17.84C6.33503 18.599 7.19992 18.889 8.20844 18.7378C8.83916 18.6422 9.19823 18.2195 9.2919 17.5283C9.32624 17.2846 9.33249 17.0377 9.33249 16.794C9.33249 15.0229 9.33249 13.2518 9.33249 11.4807C9.33249 11.2338 9.34498 10.9901 9.4043 10.7494C9.54481 10.157 9.91324 9.78364 10.5252 9.68799C10.9748 9.61702 11.4338 9.61702 11.8834 9.68799C12.5953 9.80524 13.0137 10.2897 13.0637 11.0302C13.1168 11.817 13.0793 12.6038 13.0887 13.3906C13.0918 13.7115 13.0887 14.0293 13.0887 14.3502L13.0918 14.3471Z" fill="#0078AD"/>
<path d="M17.9442 17.082C17.9286 18.1589 17.9754 19.2357 17.9254 20.3095C17.8817 21.2259 17.3416 21.7227 16.4142 21.735C16.2269 21.735 16.0395 21.7381 15.8553 21.735C14.953 21.7011 14.444 21.2136 14.3784 20.3218C14.3784 20.3095 14.3784 20.2972 14.3784 20.2848C14.3784 18.1496 14.3628 16.0175 14.3847 13.8823C14.3941 12.9659 14.9436 12.4599 15.8709 12.4322C16.1457 12.4229 16.4205 12.4198 16.6921 12.4507C17.4571 12.5371 17.8724 12.9937 17.9254 13.7805C17.9723 14.5056 17.9379 15.2307 17.9473 15.9558C17.9504 16.3323 17.9473 16.7056 17.9473 17.082H17.9442Z" fill="#0078AD"/>
<path d="M16.1833 11.4875C15.9335 11.4937 15.6868 11.4629 15.4464 11.3919C14.6346 11.1543 14.2006 10.5218 14.2568 9.66091C14.3068 8.88953 14.8501 8.32488 15.6587 8.19528C16.0834 8.1274 16.5018 8.13975 16.9139 8.26317C17.7195 8.50384 18.1285 9.11786 18.0754 9.99106C18.0286 10.7439 17.5103 11.2993 16.7235 11.4413C16.5455 11.4752 16.3644 11.4845 16.1864 11.4845L16.1833 11.4875Z" fill="#0078AD"/>
<path d="M28.9384 16.1752C28.6824 14.6232 27.8799 13.4476 26.3999 12.8151C24.8356 12.1486 23.237 12.1548 21.6633 12.7904C20.4612 13.2748 19.6401 14.1511 19.2061 15.3668C18.8844 16.2678 18.8439 17.1966 19.0093 18.1315C19.2685 19.6063 20.0428 20.7202 21.4229 21.3867C22.216 21.7693 23.0653 21.9051 24.0363 21.9112C24.4547 21.902 24.9699 21.865 25.4726 21.7384C26.9807 21.362 28.0891 20.5166 28.6668 19.0633C29.0352 18.1315 29.1008 17.1595 28.9415 16.1783L28.9384 16.1752ZM25.8723 17.8353C25.61 18.6776 24.8762 19.2021 23.9614 19.1991C22.8405 19.1991 22.0193 18.4153 21.96 17.286C21.9225 16.5702 22.0973 15.9222 22.6875 15.4594C23.3151 14.9657 24.0301 14.8948 24.7638 15.1817C25.482 15.4625 25.841 16.0395 25.9534 16.7769C26.0065 17.1348 25.9784 17.4897 25.8723 17.8353Z" fill="#0078AD"/>
</g>
<defs>
<clipPath id="clip0_1600_100831">
<rect width="32.3694" height="32" fill="white" transform="translate(0.03125)"/>
</clipPath>
</defs>
</svg>
