<svg width="48" height="48" viewBox="0 0 48 48" fill="none" xmlns="http://www.w3.org/2000/svg">
<g clip-path="url(#clip0_1950_51678)">
<rect width="48" height="48" rx="24" fill="#0078AD"/>
<path d="M16 19H32C32.2652 19 32.5196 18.8946 32.7071 18.7071C32.8946 18.5196 33 18.2652 33 18C33 17.7348 32.8946 17.4804 32.7071 17.2929C32.5196 17.1054 32.2652 17 32 17H16C15.7348 17 15.4804 17.1054 15.2929 17.2929C15.1054 17.4804 15 17.7348 15 18C15 18.2652 15.1054 18.5196 15.2929 18.7071C15.4804 18.8946 15.7348 19 16 19ZM32 29H16C15.7348 29 15.4804 29.1054 15.2929 29.2929C15.1054 29.4804 15 29.7348 15 30C15 30.2652 15.1054 30.5196 15.2929 30.7071C15.4804 30.8946 15.7348 31 16 31H32C32.2652 31 32.5196 30.8946 32.7071 30.7071C32.8946 30.5196 33 30.2652 33 30C33 29.7348 32.8946 29.4804 32.7071 29.2929C32.5196 29.1054 32.2652 29 32 29ZM32 23H16C15.7348 23 15.4804 23.1054 15.2929 23.2929C15.1054 23.4804 15 23.7348 15 24C15 24.2652 15.1054 24.5196 15.2929 24.7071C15.4804 24.8946 15.7348 25 16 25H32C32.2652 25 32.5196 24.8946 32.7071 24.7071C32.8946 24.5196 33 24.2652 33 24C33 23.7348 32.8946 23.4804 32.7071 23.2929C32.5196 23.1054 32.2652 23 32 23Z" fill="white"/>
</g>
<defs>
<clipPath id="clip0_1950_51678">
<rect width="48" height="48" fill="white"/>
</clipPath>
</defs>
</svg>
