<svg width="312" height="40" viewBox="0 0 312 40" fill="none" xmlns="http://www.w3.org/2000/svg">
<rect width="312" height="40" rx="20" fill="#0078AD"/>
<path d="M120.443 30.1173C119.246 31.2783 117.938 31.095 116.679 30.5451C115.347 29.9829 114.125 29.9585 112.72 30.5451C110.96 31.3027 110.031 31.0828 108.98 30.1173C103.017 23.9703 103.897 14.6093 110.667 14.2671C112.317 14.3527 113.465 15.1714 114.431 15.2448C115.873 14.9515 117.254 14.1082 118.794 14.2182C120.639 14.3649 122.032 15.0981 122.949 16.418C119.136 18.7032 120.04 23.7259 123.535 25.1313C122.839 26.9644 121.934 28.7853 120.431 30.1296L120.443 30.1173ZM114.309 14.1938C114.125 11.4686 116.337 9.21997 118.879 9C119.234 12.1529 116.019 14.4993 114.309 14.1938Z" fill="white"/>
<path d="M140.08 14.944H142.864L146.944 26H144.08L143.36 23.744H139.456L138.704 26H135.936L140.08 14.944ZM142.752 21.792L141.488 17.792H141.44L140.112 21.792H142.752ZM147.643 17.712H150.059V18.768H150.075C150.331 18.352 150.667 18.0373 151.083 17.824C151.499 17.6107 151.974 17.504 152.507 17.504C153.254 17.504 153.888 17.696 154.411 18.08C154.944 18.464 155.344 18.992 155.611 19.664C155.888 20.3253 156.027 21.0827 156.027 21.936C156.027 22.7573 155.894 23.4933 155.627 24.144C155.36 24.784 154.966 25.2907 154.443 25.664C153.931 26.0373 153.307 26.224 152.571 26.224C152.048 26.224 151.579 26.1173 151.163 25.904C150.747 25.68 150.411 25.3547 150.155 24.928H150.123V28.832H147.643V17.712ZM150.059 21.872C150.059 22.6293 150.208 23.232 150.507 23.68C150.806 24.128 151.243 24.352 151.819 24.352C152.374 24.352 152.795 24.1333 153.083 23.696C153.371 23.248 153.515 22.64 153.515 21.872C153.515 21.136 153.371 20.5333 153.083 20.064C152.795 19.5947 152.363 19.36 151.787 19.36C151.232 19.36 150.806 19.5733 150.507 20C150.208 20.416 150.059 21.04 150.059 21.872ZM157.297 17.712H159.713V18.768H159.729C159.985 18.352 160.321 18.0373 160.737 17.824C161.153 17.6107 161.628 17.504 162.161 17.504C162.908 17.504 163.543 17.696 164.065 18.08C164.599 18.464 164.999 18.992 165.265 19.664C165.543 20.3253 165.681 21.0827 165.681 21.936C165.681 22.7573 165.548 23.4933 165.281 24.144C165.015 24.784 164.62 25.2907 164.097 25.664C163.585 26.0373 162.961 26.224 162.225 26.224C161.703 26.224 161.233 26.1173 160.817 25.904C160.401 25.68 160.065 25.3547 159.809 24.928H159.777V28.832H157.297V17.712ZM159.713 21.872C159.713 22.6293 159.863 23.232 160.161 23.68C160.46 24.128 160.897 24.352 161.473 24.352C162.028 24.352 162.449 24.1333 162.737 23.696C163.025 23.248 163.169 22.64 163.169 21.872C163.169 21.136 163.025 20.5333 162.737 20.064C162.449 19.5947 162.017 19.36 161.441 19.36C160.887 19.36 160.46 19.5733 160.161 20C159.863 20.416 159.713 21.04 159.713 21.872ZM175.613 26.256C174.632 26.256 173.784 26.1173 173.069 25.84C172.355 25.5627 171.8 25.1627 171.405 24.64C171.021 24.1067 170.829 23.4667 170.829 22.72H173.565C173.565 23.232 173.747 23.616 174.109 23.872C174.483 24.128 175.016 24.256 175.709 24.256C176.285 24.256 176.755 24.1493 177.117 23.936C177.48 23.7227 177.661 23.408 177.661 22.992C177.661 22.6613 177.517 22.3893 177.229 22.176C176.952 21.9627 176.488 21.7653 175.837 21.584L173.981 21.088C173.032 20.8213 172.328 20.4427 171.869 19.952C171.421 19.4613 171.197 18.8373 171.197 18.08C171.197 17.3867 171.379 16.784 171.741 16.272C172.115 15.76 172.632 15.3707 173.293 15.104C173.955 14.8267 174.723 14.688 175.597 14.688C176.472 14.688 177.235 14.8107 177.885 15.056C178.536 15.3013 179.043 15.6693 179.405 16.16C179.768 16.64 179.955 17.2267 179.965 17.92H177.357C177.325 17.5147 177.155 17.2053 176.845 16.992C176.536 16.7787 176.099 16.672 175.533 16.672C175.021 16.672 174.611 16.768 174.301 16.96C174.003 17.152 173.853 17.4347 173.853 17.808C173.853 18.032 173.901 18.2133 173.997 18.352C174.093 18.4907 174.248 18.6133 174.461 18.72C174.685 18.816 175 18.9173 175.405 19.024L176.733 19.36C177.587 19.5733 178.275 19.824 178.797 20.112C179.331 20.3893 179.731 20.736 179.997 21.152C180.264 21.568 180.397 22.08 180.397 22.688C180.397 23.392 180.211 24.016 179.837 24.56C179.475 25.0933 178.936 25.5093 178.221 25.808C177.507 26.1067 176.637 26.256 175.613 26.256ZM185.174 26.128C184.236 26.128 183.521 25.8987 183.03 25.44C182.54 24.9813 182.294 24.2133 182.294 23.136V19.472H180.79V17.712H182.294V15.2H184.806V17.712H186.598V19.472H184.806V22.8C184.806 23.1413 184.838 23.408 184.902 23.6C184.977 23.792 185.089 23.9307 185.238 24.016C185.388 24.1013 185.59 24.144 185.846 24.144C186.134 24.144 186.396 24.1173 186.63 24.064V25.968C186.257 26.0747 185.772 26.128 185.174 26.128ZM191.757 26.224C190.882 26.224 190.125 26.0427 189.485 25.68C188.845 25.3173 188.354 24.8107 188.013 24.16C187.682 23.4987 187.517 22.7307 187.517 21.856C187.517 20.992 187.687 20.2347 188.029 19.584C188.37 18.9227 188.855 18.4107 189.485 18.048C190.125 17.6853 190.882 17.504 191.757 17.504C192.631 17.504 193.383 17.6853 194.013 18.048C194.653 18.4107 195.143 18.9227 195.485 19.584C195.826 20.2453 195.997 21.0027 195.997 21.856C195.997 22.7307 195.826 23.4987 195.485 24.16C195.143 24.8107 194.653 25.3173 194.013 25.68C193.373 26.0427 192.621 26.224 191.757 26.224ZM190.029 21.856C190.029 22.6453 190.178 23.2587 190.477 23.696C190.775 24.1333 191.202 24.352 191.757 24.352C192.311 24.352 192.738 24.1333 193.037 23.696C193.335 23.2587 193.485 22.6453 193.485 21.856C193.485 21.088 193.341 20.48 193.053 20.032C192.765 19.584 192.327 19.36 191.741 19.36C191.197 19.36 190.775 19.5787 190.477 20.016C190.178 20.4427 190.029 21.056 190.029 21.856ZM197.304 17.712H199.704V19.12H199.736C199.917 18.5973 200.205 18.1973 200.6 17.92C201.005 17.6427 201.475 17.504 202.008 17.504C202.307 17.504 202.547 17.5307 202.728 17.584V19.808C202.547 19.7333 202.296 19.696 201.976 19.696C201.24 19.696 200.691 19.9253 200.328 20.384C199.976 20.832 199.8 21.4667 199.8 22.288V26H197.304V17.712ZM207.22 26.224C206.377 26.224 205.636 26.048 204.996 25.696C204.366 25.344 203.876 24.8427 203.524 24.192C203.182 23.5307 203.012 22.7573 203.012 21.872C203.012 21.04 203.182 20.2933 203.524 19.632C203.876 18.96 204.366 18.4373 204.996 18.064C205.636 17.6907 206.377 17.504 207.22 17.504C208.105 17.504 208.857 17.696 209.476 18.08C210.105 18.4533 210.574 18.992 210.884 19.696C211.204 20.3893 211.364 21.2053 211.364 22.144V22.432H205.444C205.465 23.0827 205.641 23.5893 205.972 23.952C206.302 24.3147 206.766 24.496 207.364 24.496C207.78 24.496 208.121 24.416 208.388 24.256C208.654 24.096 208.836 23.8773 208.932 23.6H211.188C210.953 24.4427 210.5 25.0933 209.828 25.552C209.156 26 208.286 26.224 207.22 26.224ZM208.948 20.992C208.916 20.4373 208.75 20.0053 208.452 19.696C208.153 19.376 207.748 19.216 207.236 19.216C206.734 19.216 206.324 19.3707 206.004 19.68C205.694 19.9893 205.508 20.4267 205.444 20.992H208.948Z" fill="white"/>
</svg>
