<svg width="51" height="52" viewBox="0 0 51 52" fill="none" xmlns="http://www.w3.org/2000/svg">
<path d="M24.4805 51.0698C24.657 50.9744 24.8287 50.9791 25.0051 51.0698H24.4805Z" fill="white"/>
<path d="M23.8984 51.0717C24.032 50.9668 24.1703 50.9859 24.3039 51.0717H23.8984Z" fill="white"/>
<path d="M26.4167 51.0547C26.4167 51.0547 26.4024 51.069 26.3976 51.069H25.9922" fill="white"/>
<path d="M0.116211 24.5009C0.230687 24.601 0.154369 24.7298 0.168679 24.8443C0.154369 24.8729 0.13529 24.8777 0.116211 24.8443V24.4961V24.5009Z" fill="white"/>
<path d="M0.168679 26.8917C0.154369 27.0061 0.230687 27.1349 0.116211 27.2351V26.8869C0.13529 26.8583 0.154369 26.8631 0.168679 26.8869V26.8917Z" fill="white"/>
<path d="M0.116211 24.8516C0.116211 24.8516 0.1496 24.8516 0.168679 24.8516C0.168679 24.9517 0.211607 25.0614 0.116211 25.1473V24.8563V24.8516Z" fill="white"/>
<path d="M0.168679 26.8923C0.168679 26.8923 0.13529 26.8923 0.116211 26.8923V26.6013C0.211607 26.6872 0.168679 26.7969 0.168679 26.897V26.8923Z" fill="white"/>
<path d="M25.2292 51.0658C39.1462 51.0658 50.4281 39.7839 50.4281 25.8669C50.4281 11.9499 39.1462 0.667969 25.2292 0.667969C11.3122 0.667969 0.0302734 11.9499 0.0302734 25.8669C0.0302734 39.7839 11.3122 51.0658 25.2292 51.0658Z" fill="white"/>
<path d="M25.1191 22.7825C25.1907 22.7444 25.267 22.7444 25.3386 22.7825H25.1191Z" fill="white"/>
<path d="M25.1436 22.7826C25.2008 22.7397 25.258 22.7492 25.3153 22.7826H25.1436Z" fill="white"/>
<path d="M25.1386 22.7796C25.191 22.7367 25.253 22.7605 25.3103 22.7605C25.315 22.7653 25.3198 22.7701 25.315 22.7748C25.315 22.7748 25.3103 22.7796 25.3055 22.7796H25.1338H25.1386Z" fill="white"/>
<path d="M25.1532 22.7801C25.1532 22.7801 25.1532 22.7657 25.1532 22.7609C25.2012 22.7657 25.2541 22.7321 25.2973 22.7801H25.1484H25.1532Z" fill="white"/>
<path d="M43.3595 26.6802C42.9901 24.4156 41.8334 22.7014 39.7012 21.7747C37.4435 20.7991 35.1371 20.8131 32.8725 21.7328C31.1374 22.4366 29.9528 23.7188 29.3327 25.4887C28.8658 26.8056 28.8101 28.1574 29.047 29.5232C29.4233 31.6763 30.5381 33.2999 32.5241 34.2685C33.6668 34.8259 34.8932 35.021 36.2938 35.035C36.9 35.021 37.6386 34.9653 38.3703 34.7841C40.5443 34.2336 42.147 33.0003 42.9762 30.875C43.5058 29.5162 43.6033 28.1017 43.3734 26.6663L43.3595 26.6802ZM38.9417 29.1051C38.5654 30.3315 37.5062 31.098 36.1893 31.098C34.5727 31.098 33.3881 29.9552 33.3045 28.3107C33.2487 27.2655 33.5066 26.3248 34.3567 25.642C35.2625 24.9173 36.2938 24.8197 37.346 25.2378C38.3773 25.6489 38.8999 26.4921 39.0601 27.5652C39.1368 28.0878 39.095 28.6034 38.9417 29.1051Z" fill="#0C5273"/>
<path d="M20.5113 24.0207C20.4904 25.5607 20.5531 27.1076 20.4764 28.6475C20.4277 29.5813 20.2674 30.5011 19.9329 31.379C19.2988 33.0375 18.1421 34.1593 16.4349 34.654C14.3375 35.2603 12.2401 35.2115 10.1567 34.5426C9.79433 34.4241 9.46683 34.2499 9.1463 34.0409C7.28582 32.8145 7.51576 30.299 8.96513 29.212C9.04178 29.1562 9.12539 29.1005 9.20901 29.0447C9.42502 28.8914 9.57832 28.8914 9.78736 29.1283C10.7629 30.2363 12.0102 30.6613 13.4665 30.4383C14.3724 30.299 14.895 29.6858 15.0274 28.6685C15.0762 28.3131 15.0901 27.9507 15.0901 27.5954C15.0901 25.0102 15.0901 22.425 15.0901 19.8399C15.0901 19.4775 15.111 19.1222 15.1946 18.7737C15.3967 17.9097 15.9332 17.3662 16.8112 17.2268C17.4592 17.1223 18.1212 17.1223 18.7692 17.2268C19.7936 17.401 20.3998 18.1048 20.4695 19.1849C20.5461 20.3346 20.4904 21.4843 20.5043 22.6271C20.5043 23.094 20.5043 23.5608 20.5043 24.0277L20.5113 24.0207Z" fill="#0C5273"/>
<path d="M27.5074 28.0042C27.4865 29.572 27.5562 31.1468 27.4795 32.7147C27.4168 34.0525 26.6364 34.7772 25.2985 34.7981C25.0268 34.7981 24.762 34.7981 24.4902 34.7981C23.1872 34.7493 22.4555 34.0386 22.3649 32.7356C22.3649 32.7147 22.3649 32.7007 22.3649 32.6798C22.3649 29.5651 22.344 26.4503 22.3719 23.3356C22.3859 21.9977 23.1802 21.2591 24.5181 21.2173C24.9153 21.2034 25.3125 21.1964 25.7027 21.2452C26.8036 21.3706 27.4029 22.0395 27.4795 23.1893C27.5492 24.2484 27.5004 25.3076 27.5074 26.3667C27.5074 26.9172 27.5074 27.4607 27.5074 28.0112V28.0042Z" fill="#0C5273"/>
<path d="M24.9711 19.8376C24.6088 19.8445 24.2534 19.8027 23.912 19.6982C22.7414 19.3498 22.1142 18.43 22.1978 17.1758C22.2675 16.0539 23.048 15.2247 24.2186 15.0365C24.8318 14.939 25.431 14.9529 26.0303 15.1341C27.187 15.4895 27.7793 16.3814 27.7026 17.6566C27.633 18.7575 26.8874 19.5658 25.7516 19.7749C25.4938 19.8236 25.2359 19.8376 24.9781 19.8376H24.9711Z" fill="#0C5273"/>
<path d="M24.3418 50.9643C24.5135 50.8689 24.69 50.8737 24.8617 50.9643H24.3418Z" fill="white"/>
<path d="M23.7598 50.9624C23.8933 50.8574 24.0316 50.8765 24.1652 50.9624H23.7598Z" fill="white"/>
<path d="M26.2741 50.9492C26.2741 50.9492 26.2598 50.9635 26.255 50.9635H25.8496" fill="white"/>
<path d="M0.0302734 24.454C0.144749 24.5542 0.068432 24.6829 0.0827414 24.7974C0.068432 24.826 0.0493527 24.8308 0.0302734 24.7974V24.4492V24.454Z" fill="white"/>
<path d="M0.0827414 26.8331C0.068432 26.9476 0.144749 27.0763 0.0302734 27.1765V26.8283C0.0493527 26.7997 0.068432 26.8045 0.0827414 26.8283V26.8331Z" fill="white"/>
<path d="M0.0302734 24.8008C0.0302734 24.8008 0.0636621 24.8008 0.0827414 24.8008C0.0827414 24.9009 0.12567 25.0107 0.0302734 25.0965V24.8056V24.8008Z" fill="white"/>
<path d="M0.0827414 26.8342C0.0827414 26.8342 0.0493527 26.8342 0.0302734 26.8342V26.5432C0.12567 26.6291 0.0827414 26.7388 0.0827414 26.8389V26.8342Z" fill="white"/>
</svg>
