<svg width="312" height="40" viewBox="0 0 312 40" fill="none" xmlns="http://www.w3.org/2000/svg">
<rect width="312" height="40" rx="20" fill="#0078AD"/>
<path d="M103 10.3501V29.6489C103 29.6908 103.013 29.7317 103.036 29.7665C103.059 29.8013 103.092 29.8285 103.131 29.8446C103.17 29.8607 103.212 29.865 103.253 29.857C103.294 29.849 103.332 29.8291 103.362 29.7997L113.411 20L103.362 10.1993C103.332 10.1699 103.294 10.15 103.253 10.142C103.212 10.134 103.17 10.1384 103.131 10.1545C103.092 10.1706 103.059 10.1977 103.036 10.2325C103.013 10.2673 103 10.3082 103 10.3501ZM117.624 15.9733L105.024 9.03157L105.016 9.02715C104.799 8.9093 104.593 9.20296 104.771 9.37385L114.648 18.818L117.624 15.9733ZM104.772 30.6262C104.593 30.797 104.799 31.0907 105.017 30.9728L105.025 30.9684L117.624 24.0267L114.648 21.181L104.772 30.6262ZM122.71 18.7723L119.192 16.8346L115.884 20L119.192 23.1639L122.71 21.2277C123.667 20.6988 123.667 19.3012 122.71 18.7723Z" fill="white"/>
<path d="M135.992 14.944H141.256C142.077 14.944 142.787 15.0987 143.384 15.408C143.981 15.7067 144.435 16.128 144.744 16.672C145.064 17.2053 145.224 17.8293 145.224 18.544C145.224 19.312 145.064 19.9787 144.744 20.544C144.424 21.0987 143.96 21.5253 143.352 21.824C142.744 22.112 142.013 22.256 141.16 22.256H138.744V26H135.992V14.944ZM140.648 20.192C141.309 20.192 141.789 20.064 142.088 19.808C142.397 19.5413 142.552 19.152 142.552 18.64C142.552 18.1387 142.403 17.76 142.104 17.504C141.805 17.2373 141.341 17.104 140.712 17.104H138.744V20.192H140.648ZM146.394 14.576H148.89V26H146.394V14.576ZM152.964 26.224C152.377 26.224 151.87 26.1227 151.444 25.92C151.017 25.7067 150.686 25.408 150.452 25.024C150.228 24.6293 150.116 24.16 150.116 23.616C150.116 21.824 151.476 20.928 154.196 20.928H155.508V20.576C155.508 20.0533 155.406 19.6693 155.204 19.424C155.001 19.1787 154.66 19.056 154.18 19.056C153.369 19.056 152.921 19.3707 152.836 20H150.452C150.548 19.1787 150.905 18.5547 151.524 18.128C152.153 17.7013 153.07 17.488 154.276 17.488C155.534 17.488 156.462 17.7547 157.06 18.288C157.657 18.8107 157.956 19.6427 157.956 20.784V26H155.732L155.588 24.992H155.556C155.332 25.3547 155.006 25.6533 154.58 25.888C154.153 26.112 153.614 26.224 152.964 26.224ZM152.66 23.424C152.66 23.808 152.766 24.096 152.98 24.288C153.204 24.4693 153.508 24.56 153.892 24.56C154.372 24.56 154.761 24.4107 155.06 24.112C155.358 23.8027 155.508 23.376 155.508 22.832V22.224H154.596C153.966 22.224 153.486 22.32 153.156 22.512C152.825 22.6933 152.66 22.9973 152.66 23.424ZM159.338 26.928C159.797 26.9173 160.165 26.8747 160.442 26.8C160.73 26.7253 160.954 26.6027 161.114 26.432C161.285 26.272 161.423 26.0427 161.53 25.744L158.586 17.712H161.242L162.89 23.344H162.922L164.554 17.712H167.13L164.442 25.408C164.09 26.4 163.679 27.152 163.21 27.664C162.751 28.1867 162.218 28.5387 161.61 28.72C161.013 28.9013 160.255 28.9973 159.338 29.008V26.928ZM176.455 26.256C175.474 26.256 174.626 26.1173 173.911 25.84C173.196 25.5627 172.642 25.1627 172.247 24.64C171.863 24.1067 171.671 23.4667 171.671 22.72H174.407C174.407 23.232 174.588 23.616 174.951 23.872C175.324 24.128 175.858 24.256 176.551 24.256C177.127 24.256 177.596 24.1493 177.959 23.936C178.322 23.7227 178.503 23.408 178.503 22.992C178.503 22.6613 178.359 22.3893 178.071 22.176C177.794 21.9627 177.33 21.7653 176.679 21.584L174.823 21.088C173.874 20.8213 173.17 20.4427 172.711 19.952C172.263 19.4613 172.039 18.8373 172.039 18.08C172.039 17.3867 172.22 16.784 172.583 16.272C172.956 15.76 173.474 15.3707 174.135 15.104C174.796 14.8267 175.564 14.688 176.439 14.688C177.314 14.688 178.076 14.8107 178.727 15.056C179.378 15.3013 179.884 15.6693 180.247 16.16C180.61 16.64 180.796 17.2267 180.807 17.92H178.199C178.167 17.5147 177.996 17.2053 177.687 16.992C177.378 16.7787 176.94 16.672 176.375 16.672C175.863 16.672 175.452 16.768 175.143 16.96C174.844 17.152 174.695 17.4347 174.695 17.808C174.695 18.032 174.743 18.2133 174.839 18.352C174.935 18.4907 175.09 18.6133 175.303 18.72C175.527 18.816 175.842 18.9173 176.247 19.024L177.575 19.36C178.428 19.5733 179.116 19.824 179.639 20.112C180.172 20.3893 180.572 20.736 180.839 21.152C181.106 21.568 181.239 22.08 181.239 22.688C181.239 23.392 181.052 24.016 180.679 24.56C180.316 25.0933 179.778 25.5093 179.063 25.808C178.348 26.1067 177.479 26.256 176.455 26.256ZM186.016 26.128C185.078 26.128 184.363 25.8987 183.872 25.44C183.382 24.9813 183.136 24.2133 183.136 23.136V19.472H181.632V17.712H183.136V15.2H185.648V17.712H187.44V19.472H185.648V22.8C185.648 23.1413 185.68 23.408 185.744 23.6C185.819 23.792 185.931 23.9307 186.08 24.016C186.23 24.1013 186.432 24.144 186.688 24.144C186.976 24.144 187.238 24.1173 187.472 24.064V25.968C187.099 26.0747 186.614 26.128 186.016 26.128ZM192.599 26.224C191.724 26.224 190.967 26.0427 190.327 25.68C189.687 25.3173 189.196 24.8107 188.855 24.16C188.524 23.4987 188.359 22.7307 188.359 21.856C188.359 20.992 188.529 20.2347 188.871 19.584C189.212 18.9227 189.697 18.4107 190.327 18.048C190.967 17.6853 191.724 17.504 192.599 17.504C193.473 17.504 194.225 17.6853 194.855 18.048C195.495 18.4107 195.985 18.9227 196.327 19.584C196.668 20.2453 196.839 21.0027 196.839 21.856C196.839 22.7307 196.668 23.4987 196.327 24.16C195.985 24.8107 195.495 25.3173 194.855 25.68C194.215 26.0427 193.463 26.224 192.599 26.224ZM190.871 21.856C190.871 22.6453 191.02 23.2587 191.319 23.696C191.617 24.1333 192.044 24.352 192.599 24.352C193.153 24.352 193.58 24.1333 193.879 23.696C194.177 23.2587 194.327 22.6453 194.327 21.856C194.327 21.088 194.183 20.48 193.895 20.032C193.607 19.584 193.169 19.36 192.583 19.36C192.039 19.36 191.617 19.5787 191.319 20.016C191.02 20.4427 190.871 21.056 190.871 21.856ZM198.146 17.712H200.546V19.12H200.578C200.759 18.5973 201.047 18.1973 201.442 17.92C201.847 17.6427 202.317 17.504 202.85 17.504C203.149 17.504 203.389 17.5307 203.57 17.584V19.808C203.389 19.7333 203.138 19.696 202.818 19.696C202.082 19.696 201.533 19.9253 201.17 20.384C200.818 20.832 200.642 21.4667 200.642 22.288V26H198.146V17.712ZM208.061 26.224C207.219 26.224 206.477 26.048 205.837 25.696C205.208 25.344 204.717 24.8427 204.365 24.192C204.024 23.5307 203.853 22.7573 203.853 21.872C203.853 21.04 204.024 20.2933 204.365 19.632C204.717 18.96 205.208 18.4373 205.837 18.064C206.477 17.6907 207.219 17.504 208.061 17.504C208.947 17.504 209.699 17.696 210.317 18.08C210.947 18.4533 211.416 18.992 211.725 19.696C212.045 20.3893 212.205 21.2053 212.205 22.144V22.432H206.285C206.307 23.0827 206.483 23.5893 206.813 23.952C207.144 24.3147 207.608 24.496 208.205 24.496C208.621 24.496 208.963 24.416 209.229 24.256C209.496 24.096 209.677 23.8773 209.773 23.6H212.029C211.795 24.4427 211.341 25.0933 210.669 25.552C209.997 26 209.128 26.224 208.061 26.224ZM209.789 20.992C209.757 20.4373 209.592 20.0053 209.293 19.696C208.995 19.376 208.589 19.216 208.077 19.216C207.576 19.216 207.165 19.3707 206.845 19.68C206.536 19.9893 206.349 20.4267 206.285 20.992H209.789Z" fill="white"/>
</svg>
