<svg width="28" height="32" viewBox="0 0 28 32" fill="none" xmlns="http://www.w3.org/2000/svg">
<path d="M0 13.5C0 9.35625 3.35625 6 7.5 6H8C9.10625 6 10 6.89375 10 8C10 9.10625 9.10625 10 8 10H7.5C5.56875 10 4 11.5688 4 13.5V14H8C10.2062 14 12 15.7937 12 18V22C12 24.2062 10.2062 26 8 26H4C1.79375 26 0 24.2062 0 22V13.5ZM16 13.5C16 9.35625 19.3562 6 23.5 6H24C25.1063 6 26 6.89375 26 8C26 9.10625 25.1063 10 24 10H23.5C21.5687 10 20 11.5688 20 13.5V14H24C26.2062 14 28 15.7937 28 18V22C28 24.2062 26.2062 26 24 26H20C17.7937 26 16 24.2062 16 22V13.5Z" fill="#A7F6E9"/>
</svg>
