<svg width="313" height="32" viewBox="0 0 313 32" fill="none" xmlns="http://www.w3.org/2000/svg">
<rect x="37" y="0.5" width="31" height="31" rx="15.5" fill="#E5F1F7"/>
<path d="M50.5003 20.6668C50.4125 20.6673 50.3256 20.6505 50.2443 20.6173C50.1631 20.5842 50.0892 20.5353 50.027 20.4735L46.6936 17.1402C46.5681 17.0146 46.4976 16.8444 46.4976 16.6668C46.4976 16.4893 46.5681 16.319 46.6936 16.1935C46.8192 16.068 46.9894 15.9974 47.167 15.9974C47.3445 15.9974 47.5148 16.068 47.6403 16.1935L50.5003 19.0602L57.3603 12.1935C57.4858 12.068 57.6561 11.9974 57.8336 11.9974C58.0112 11.9974 58.1814 12.068 58.307 12.1935C58.4325 12.319 58.503 12.4893 58.503 12.6668C58.503 12.8444 58.4325 13.0146 58.307 13.1402L50.9736 20.4735C50.9113 20.5353 50.8374 20.5842 50.7562 20.6173C50.675 20.6505 50.588 20.6673 50.5003 20.6668Z" fill="#0078AD"/>
<rect x="37" y="0.5" width="31" height="31" rx="15.5" stroke="#89DCFF"/>
<path d="M76.5 16C76.5 15.7239 76.7239 15.5 77 15.5H104.5V16.5H77C76.7239 16.5 76.5 16.2761 76.5 16Z" fill="#89DCFF"/>
<path d="M104.5 15.5H132C132.276 15.5 132.5 15.7239 132.5 16C132.5 16.2761 132.276 16.5 132 16.5H104.5V15.5Z" fill="#89DCFF"/>
<rect x="141" y="0.5" width="31" height="31" rx="15.5" fill="#E5F1F7"/>
<path d="M154.5 20.6668C154.413 20.6673 154.326 20.6505 154.244 20.6173C154.163 20.5842 154.089 20.5353 154.027 20.4735L150.694 17.1402C150.568 17.0146 150.498 16.8444 150.498 16.6668C150.498 16.4893 150.568 16.319 150.694 16.1935C150.819 16.068 150.989 15.9974 151.167 15.9974C151.344 15.9974 151.515 16.068 151.64 16.1935L154.5 19.0602L161.36 12.1935C161.486 12.068 161.656 11.9974 161.834 11.9974C162.011 11.9974 162.181 12.068 162.307 12.1935C162.432 12.319 162.503 12.4893 162.503 12.6668C162.503 12.8444 162.432 13.0146 162.307 13.1402L154.974 20.4735C154.911 20.5353 154.837 20.5842 154.756 20.6173C154.675 20.6505 154.588 20.6673 154.5 20.6668Z" fill="#0078AD"/>
<rect x="141" y="0.5" width="31" height="31" rx="15.5" stroke="#89DCFF"/>
<path d="M180.5 16C180.5 15.7239 180.724 15.5 181 15.5H208.5V16.5H181C180.724 16.5 180.5 16.2761 180.5 16Z" fill="#89DCFF"/>
<path d="M208.5 15.5H236C236.276 15.5 236.5 15.7239 236.5 16C236.5 16.2761 236.276 16.5 236 16.5H208.5V15.5Z" fill="#89DCFF"/>
<rect x="244.5" width="32" height="32" rx="16" fill="#89DCFF"/>
<path d="M260.495 22.208C259.599 22.208 258.831 22.064 258.191 21.776C257.551 21.488 257.065 21.0773 256.735 20.544C256.404 20 256.239 19.3493 256.239 18.592V18.4H258.623V18.496C258.623 18.8267 258.697 19.1253 258.847 19.392C258.996 19.648 259.204 19.8507 259.471 20C259.748 20.1387 260.068 20.208 260.431 20.208C260.964 20.208 261.391 20.0693 261.711 19.792C262.031 19.5147 262.191 19.1307 262.191 18.64C262.191 18.1067 262.031 17.7013 261.711 17.424C261.401 17.1467 260.953 17.008 260.367 17.008H259.759V15.36H260.383C260.884 15.36 261.284 15.248 261.583 15.024C261.892 14.7893 262.047 14.464 262.047 14.048C262.047 13.6213 261.908 13.2907 261.631 13.056C261.353 12.8107 260.991 12.688 260.543 12.688C260.031 12.688 259.62 12.816 259.311 13.072C259.012 13.3173 258.863 13.6907 258.863 14.192V14.24H256.495C256.495 13.504 256.665 12.8747 257.007 12.352C257.348 11.8187 257.828 11.4133 258.447 11.136C259.065 10.8587 259.791 10.72 260.623 10.72C261.369 10.72 262.025 10.8373 262.591 11.072C263.156 11.3067 263.593 11.648 263.903 12.096C264.223 12.5333 264.383 13.0613 264.383 13.68C264.383 14.2987 264.228 14.816 263.919 15.232C263.609 15.648 263.209 15.9253 262.719 16.064V16.096C263.369 16.256 263.876 16.5707 264.239 17.04C264.612 17.4987 264.799 18.064 264.799 18.736C264.799 19.4293 264.623 20.0373 264.271 20.56C263.929 21.0827 263.433 21.488 262.783 21.776C262.132 22.064 261.369 22.208 260.495 22.208Z" fill="#001E2B"/>
</svg>
