<svg width="312" height="32" viewBox="0 0 312 32" fill="none" xmlns="http://www.w3.org/2000/svg">
<rect x="36.5" y="0.5" width="31" height="31" rx="15.5" fill="#E5F1F7"/>
<path d="M50.0003 20.6668C49.9125 20.6673 49.8256 20.6505 49.7443 20.6173C49.6631 20.5842 49.5892 20.5353 49.527 20.4735L46.1936 17.1402C46.0681 17.0146 45.9976 16.8444 45.9976 16.6668C45.9976 16.4893 46.0681 16.319 46.1936 16.1935C46.3192 16.068 46.4894 15.9974 46.667 15.9974C46.8445 15.9974 47.0148 16.068 47.1403 16.1935L50.0003 19.0602L56.8603 12.1935C56.9858 12.068 57.1561 11.9974 57.3336 11.9974C57.5112 11.9974 57.6814 12.068 57.807 12.1935C57.9325 12.319 58.003 12.4893 58.003 12.6668C58.003 12.8444 57.9325 13.0146 57.807 13.1402L50.4736 20.4735C50.4113 20.5353 50.3374 20.5842 50.2562 20.6173C50.175 20.6505 50.088 20.6673 50.0003 20.6668Z" fill="#0078AD"/>
<rect x="36.5" y="0.5" width="31" height="31" rx="15.5" stroke="#89DCFF"/>
<path d="M76 16C76 15.7239 76.2239 15.5 76.5 15.5H104V16.5H76.5C76.2239 16.5 76 16.2761 76 16Z" fill="#89DCFF"/>
<path d="M104 15.5H131.5C131.776 15.5 132 15.7239 132 16C132 16.2761 131.776 16.5 131.5 16.5H104V15.5Z" fill="#89DCFF"/>
<rect x="140" width="32" height="32" rx="16" fill="#89DCFF"/>
<path d="M152.65 19.616C153.748 18.8373 154.612 18.192 155.242 17.68C155.882 17.168 156.415 16.6347 156.842 16.08C157.268 15.5253 157.482 14.9813 157.482 14.448C157.482 13.9147 157.348 13.504 157.082 13.216C156.815 12.928 156.436 12.784 155.946 12.784C155.434 12.784 155.023 12.944 154.714 13.264C154.415 13.5733 154.266 14.0107 154.266 14.576V14.624H151.802V14.576C151.802 13.8187 151.978 13.1467 152.33 12.56C152.682 11.9733 153.178 11.52 153.818 11.2C154.458 10.88 155.194 10.72 156.026 10.72C156.836 10.72 157.54 10.864 158.138 11.152C158.746 11.44 159.21 11.856 159.53 12.4C159.85 12.9333 160.01 13.568 160.01 14.304C160.01 15.0933 159.818 15.8027 159.434 16.432C159.06 17.0507 158.602 17.584 158.058 18.032C157.524 18.48 156.81 19.0027 155.914 19.6L155.642 19.792V19.824H160.17V22H151.898V20.144L152.65 19.616Z" fill="#001E2B"/>
<path d="M180 16C180 15.7239 180.224 15.5 180.5 15.5H208V16.5H180.5C180.224 16.5 180 16.2761 180 16Z" fill="#E0E0E0"/>
<path d="M208 15.5H235.5C235.776 15.5 236 15.7239 236 16C236 16.2761 235.776 16.5 235.5 16.5H208V15.5Z" fill="#E0E0E0"/>
<path d="M259.995 22.208C259.099 22.208 258.331 22.064 257.691 21.776C257.051 21.488 256.565 21.0773 256.235 20.544C255.904 20 255.739 19.3493 255.739 18.592V18.4H258.123V18.496C258.123 18.8267 258.197 19.1253 258.347 19.392C258.496 19.648 258.704 19.8507 258.971 20C259.248 20.1387 259.568 20.208 259.931 20.208C260.464 20.208 260.891 20.0693 261.211 19.792C261.531 19.5147 261.691 19.1307 261.691 18.64C261.691 18.1067 261.531 17.7013 261.211 17.424C260.901 17.1467 260.453 17.008 259.867 17.008H259.259V15.36H259.883C260.384 15.36 260.784 15.248 261.083 15.024C261.392 14.7893 261.547 14.464 261.547 14.048C261.547 13.6213 261.408 13.2907 261.131 13.056C260.853 12.8107 260.491 12.688 260.043 12.688C259.531 12.688 259.12 12.816 258.811 13.072C258.512 13.3173 258.363 13.6907 258.363 14.192V14.24H255.995C255.995 13.504 256.165 12.8747 256.507 12.352C256.848 11.8187 257.328 11.4133 257.947 11.136C258.565 10.8587 259.291 10.72 260.123 10.72C260.869 10.72 261.525 10.8373 262.091 11.072C262.656 11.3067 263.093 11.648 263.403 12.096C263.723 12.5333 263.883 13.0613 263.883 13.68C263.883 14.2987 263.728 14.816 263.419 15.232C263.109 15.648 262.709 15.9253 262.219 16.064V16.096C262.869 16.256 263.376 16.5707 263.739 17.04C264.112 17.4987 264.299 18.064 264.299 18.736C264.299 19.4293 264.123 20.0373 263.771 20.56C263.429 21.0827 262.933 21.488 262.283 21.776C261.632 22.064 260.869 22.208 259.995 22.208Z" fill="#B5B5B5"/>
<rect x="244.5" y="0.5" width="31" height="31" rx="15.5" stroke="#B5B5B5"/>
</svg>
