<svg width="30" height="30" viewBox="0 0 30 30" fill="none" xmlns="http://www.w3.org/2000/svg">
<path d="M8.87539 11.8383H9.23789C10.0004 11.8383 10.6129 11.2258 10.6129 10.4633V8.85078C10.6129 8.85078 10.6129 8.81328 10.6004 8.78828C10.6004 8.76328 10.6129 8.75078 10.6129 8.72578C10.6129 8.17578 10.7379 7.08828 11.4879 6.08828C12.7879 4.36328 14.9004 4.33828 14.9879 4.33828C15.0754 4.33828 17.1879 4.36328 18.4879 6.08828C19.2379 7.08828 19.3629 8.16328 19.3629 8.72578C19.3629 8.75078 19.3629 8.76328 19.3754 8.78828C19.3754 8.81328 19.3629 8.82578 19.3629 8.85078V11.6508C19.3629 12.6258 18.9754 13.1383 18.8629 13.1758H17.4879C17.1379 13.1758 16.8629 13.4508 16.8629 13.8008C16.8629 14.1508 17.1379 14.4258 17.4879 14.4258H18.8629C19.2129 14.4258 19.5504 14.2758 19.8254 14.0008C20.2879 13.5383 20.5629 12.7258 20.6004 11.8258C20.6504 11.8258 20.6879 11.8508 20.7379 11.8508H21.1004C21.8629 11.8508 22.4754 11.2383 22.4754 10.4758V8.86328C22.4754 8.10078 21.8629 7.48828 21.1004 7.48828H20.7379C20.6379 7.48828 20.5629 7.52578 20.4629 7.53828C20.3254 6.87578 20.0379 6.10078 19.4754 5.36328C17.8379 3.17578 15.2629 3.11328 14.9754 3.11328C14.6879 3.11328 12.1129 3.17578 10.4754 5.36328C9.91289 6.11328 9.63789 6.88828 9.48789 7.53828C9.40039 7.52578 9.31289 7.48828 9.21289 7.48828H8.85039C8.08789 7.48828 7.47539 8.10078 7.47539 8.86328V10.4758C7.47539 11.2383 8.08789 11.8508 8.85039 11.8508L8.87539 11.8383ZM18.7504 15.0383C18.7004 17.1883 18.1379 20.3508 16.8504 22.4508L15.6004 17.5008C17.5129 15.0008 15.4129 15.0008 15.0129 15.0008C14.5754 15.0008 12.5129 15.0008 14.4254 17.5008L13.1754 22.4508C11.8754 20.3508 11.3254 17.1883 11.2754 15.0383C7.66289 16.1133 5.02539 18.5758 5.02539 22.5383V23.7883C5.02539 25.1633 6.13789 26.2883 7.52539 26.2883H22.5379C23.9129 26.2883 25.0379 25.1758 25.0379 23.7883V22.5383C25.0379 18.5758 22.4004 16.1133 18.7879 15.0383H18.7504Z" fill="#0078AD"/>
</svg>
