<svg width="32" height="32" viewBox="0 0 32 32" fill="none" xmlns="http://www.w3.org/2000/svg">
<path d="M19.9998 5.33398H11.9998C9.65264 5.35206 7.39851 6.25382 5.68655 7.85956C3.97458 9.4653 2.93047 11.6571 2.76229 13.9983C2.5941 16.3394 3.31419 18.658 4.77905 20.4919C6.24391 22.3259 8.34599 23.5406 10.6664 23.894V26.6673C10.6664 27.0387 10.7698 27.4028 10.9651 27.7188C11.1604 28.0347 11.4398 28.2901 11.772 28.4562C12.1042 28.6223 12.4761 28.6926 12.846 28.6592C13.216 28.6259 13.5693 28.4902 13.8664 28.2673L19.5597 24.0007H19.9998C22.4751 24.0007 24.8491 23.0173 26.5994 21.267C28.3498 19.5166 29.3331 17.1427 29.3331 14.6673C29.3331 12.192 28.3498 9.81799 26.5994 8.06765C24.8491 6.31731 22.4751 5.33398 19.9998 5.33398ZM10.6664 16.0007C10.4027 16.0007 10.1449 15.9225 9.92566 15.7759C9.70639 15.6294 9.53549 15.4212 9.43458 15.1776C9.33366 14.9339 9.30726 14.6658 9.3587 14.4072C9.41015 14.1486 9.53714 13.911 9.72361 13.7245C9.91008 13.538 10.1477 13.4111 10.4063 13.3596C10.6649 13.3082 10.933 13.3346 11.1767 13.4355C11.4203 13.5364 11.6285 13.7073 11.775 13.9266C11.9216 14.1458 11.9998 14.4036 11.9998 14.6673C11.9998 15.0209 11.8593 15.3601 11.6092 15.6101C11.3592 15.8602 11.02 16.0007 10.6664 16.0007ZM15.9998 16.0007C15.736 16.0007 15.4783 15.9225 15.259 15.7759C15.0397 15.6294 14.8688 15.4212 14.7679 15.1776C14.667 14.9339 14.6406 14.6658 14.692 14.4072C14.7435 14.1486 14.8705 13.911 15.0569 13.7245C15.2434 13.538 15.481 13.4111 15.7396 13.3596C15.9983 13.3082 16.2664 13.3346 16.51 13.4355C16.7536 13.5364 16.9619 13.7073 17.1084 13.9266C17.2549 14.1458 17.3331 14.4036 17.3331 14.6673C17.3331 15.0209 17.1926 15.3601 16.9426 15.6101C16.6925 15.8602 16.3534 16.0007 15.9998 16.0007ZM21.3331 16.0007C21.0694 16.0007 20.8116 15.9225 20.5923 15.7759C20.3731 15.6294 20.2022 15.4212 20.1012 15.1776C20.0003 14.9339 19.9739 14.6658 20.0254 14.4072C20.0768 14.1486 20.2038 13.911 20.3903 13.7245C20.5767 13.538 20.8143 13.4111 21.073 13.3596C21.3316 13.3082 21.5997 13.3346 21.8433 13.4355C22.087 13.5364 22.2952 13.7073 22.4417 13.9266C22.5882 14.1458 22.6664 14.4036 22.6664 14.6673C22.6664 15.0209 22.5259 15.3601 22.2759 15.6101C22.0258 15.8602 21.6867 16.0007 21.3331 16.0007Z" fill="#0078AD"/>
</svg>
