<svg width="30" height="30" viewBox="0 0 30 30" fill="none" xmlns="http://www.w3.org/2000/svg">
<path d="M15 2.50073C12.4158 2.44022 9.91277 3.4058 8.03868 5.18618C6.16459 6.96656 5.07201 9.41678 5 12.0007C5 18.3507 12.3875 25.9257 13.2375 26.7632C13.7059 27.2289 14.3395 27.4902 15 27.4902C15.6605 27.4902 16.2941 27.2289 16.7625 26.7632C17.6125 25.9257 25 18.3507 25 12.0007C24.928 9.41678 23.8354 6.96656 21.9613 5.18618C20.0872 3.4058 17.5842 2.44022 15 2.50073ZM15 16.2507C14.2583 16.2507 13.5333 16.0308 12.9166 15.6187C12.2999 15.2067 11.8193 14.621 11.5355 13.9358C11.2516 13.2506 11.1774 12.4966 11.3221 11.7691C11.4667 11.0417 11.8239 10.3735 12.3483 9.84908C12.8728 9.32463 13.541 8.96748 14.2684 8.82278C14.9958 8.67809 15.7498 8.75235 16.4351 9.03618C17.1203 9.32001 17.706 9.80065 18.118 10.4173C18.5301 11.034 18.75 11.759 18.75 12.5007C18.75 13.4953 18.3549 14.4491 17.6517 15.1524C16.9484 15.8556 15.9946 16.2507 15 16.2507Z" fill="#0078AD"/>
</svg>
