<svg width="30" height="30" viewBox="0 0 30 30" fill="none" xmlns="http://www.w3.org/2000/svg">
<path d="M15.7375 14.175L25.7375 6.8625C25.146 6.47503 24.457 6.2627 23.75 6.25H6.25C5.52594 6.25318 4.81829 6.46591 4.2125 6.8625L14.2125 14.175C14.4311 14.3433 14.6992 14.4345 14.975 14.4345C15.2508 14.4345 15.5189 14.3433 15.7375 14.175ZM27.3 8.85L17.2 16.25C16.5601 16.7136 15.7902 16.9631 15 16.9631C14.2098 16.9631 13.4399 16.7136 12.8 16.25L2.7 8.85C2.56989 9.21955 2.50229 9.60822 2.5 10V20C2.5 20.9946 2.89509 21.9484 3.59835 22.6517C4.30161 23.3549 5.25544 23.75 6.25 23.75H23.75C24.7446 23.75 25.6984 23.3549 26.4017 22.6517C27.1049 21.9484 27.5 20.9946 27.5 20V10C27.4977 9.60822 27.4301 9.21955 27.3 8.85Z" fill="#0078AD"/>
</svg>
