<svg width="24" height="24" viewBox="0 0 24 24" fill="none" xmlns="http://www.w3.org/2000/svg">
<path d="M16.44 13.6194C16.22 13.5094 15.09 12.9594 14.88 12.8794C14.67 12.7994 14.52 12.7694 14.37 12.9994C14.22 13.2294 13.78 13.7394 13.64 13.8894C13.5 14.0394 13.38 14.0594 13.15 13.8894C12.4752 13.628 11.8522 13.2487 11.31 12.7694C10.801 12.3299 10.3596 11.8177 10 11.2494C9.86 11.0194 10 10.8994 10.1 10.7794C10.2 10.6594 10.33 10.5194 10.44 10.3894C10.5331 10.2734 10.6105 10.1457 10.67 10.0094C10.7051 9.94857 10.7236 9.87959 10.7236 9.80938C10.7236 9.73916 10.7051 9.67018 10.67 9.60938C10.61 9.49937 10.16 8.37937 9.96 7.92938C9.76 7.47938 9.58 7.54938 9.45 7.54938L9 7.52938C8.88485 7.53333 8.77163 7.56012 8.66691 7.60818C8.5622 7.65625 8.46807 7.72464 8.39 7.80938C8.13175 8.05294 7.92719 8.34775 7.78943 8.67493C7.65168 9.0021 7.58375 9.35444 7.59 9.70938C7.66423 10.5654 7.99144 11.3799 8.53 12.0494C9.47915 13.5388 10.8316 14.7282 12.43 15.4794C14.76 16.3894 14.76 16.0794 15.18 16.0394C15.5011 15.9891 15.8075 15.8702 16.0785 15.6907C16.3494 15.5112 16.5785 15.2754 16.75 14.9994C16.9006 14.6605 16.9459 14.2843 16.88 13.9194C16.83 13.7894 16.67 13.7394 16.44 13.6194ZM12.17 2.49938C10.9497 2.49411 9.74025 2.7296 8.61103 3.19236C7.48181 3.65511 6.45496 4.33605 5.58925 5.19618C4.72355 6.05632 4.03599 7.07875 3.56595 8.20496C3.09591 9.33116 2.85262 10.539 2.85 11.7594C2.84492 13.4416 3.30522 15.0925 4.18 16.5294L2.5 21.5294L7.66 19.8894C9.04697 20.6304 10.5975 21.012 12.17 20.9994C13.411 21.0402 14.6475 20.831 15.806 20.3842C16.9645 19.9375 18.0213 19.2623 18.9136 18.3989C19.8059 17.5355 20.5154 16.5014 21 15.3582C21.4846 14.215 21.7343 12.986 21.7343 11.7444C21.7343 10.5027 21.4846 9.27375 21 8.13056C20.5154 6.98737 19.8059 5.9533 18.9136 5.08986C18.0213 4.22643 16.9645 3.55126 15.806 3.10452C14.6475 2.65777 13.411 2.44858 12.17 2.48938V2.49938ZM12.17 19.4994C10.6383 19.4985 9.14029 19.0501 7.86 18.2094L4.86 19.2094L5.86 16.3194C4.88749 14.9977 4.36202 13.4003 4.36 11.7594C4.34811 10.2063 4.7978 8.68463 5.65201 7.38748C6.50622 6.09033 7.72647 5.07612 9.15795 4.47352C10.5894 3.87092 12.1677 3.70708 13.6924 4.00277C15.2171 4.29847 16.6197 5.04039 17.7222 6.1344C18.8246 7.22842 19.5773 8.62524 19.8847 10.1477C20.1921 11.6701 20.0404 13.2495 19.4488 14.6856C18.8572 16.1217 17.8524 17.3497 16.5618 18.2138C15.2713 19.078 13.7532 19.5393 12.2 19.5394L12.17 19.4994Z" fill="white"/>
</svg>
