<svg width="33" height="32" viewBox="0 0 33 32" fill="none" xmlns="http://www.w3.org/2000/svg">
<g id="Frame" clip-path="url(#clip0_1950_21892)">
<path id="Vector" d="M17.2135 0C17.3603 0.0771382 17.5258 0.0493684 17.6819 0.0647961C20.2079 0.293125 22.5621 1.04908 24.7041 2.38203C28.504 4.74863 30.9394 8.09951 31.9854 12.4162C32.4256 14.2335 32.5068 16.0756 32.2758 17.93C31.8417 21.4074 30.4086 24.4312 27.9794 26.9799C25.519 29.5563 22.5059 31.1422 18.9777 31.7686C18.4281 31.8673 17.8692 31.929 17.3103 31.963C17.276 31.963 17.2323 31.9537 17.2167 32H17.1417C17.0699 31.9599 16.9887 31.9907 16.9138 31.9815C16.8295 31.9907 16.7389 31.9599 16.6546 32H16.0208C15.9084 31.9691 15.796 31.9691 15.6836 32H15.5712C15.4838 31.9691 15.3963 31.9691 15.3089 32H15.1965C14.9342 31.9537 14.6657 31.9753 14.4034 31.9475C12.9078 31.7871 11.4653 31.4261 10.0758 30.8614C8.42725 30.1919 6.93164 29.2817 5.58279 28.1277C4.20583 26.949 3.06305 25.579 2.15445 24.0239C1.13032 22.2744 0.468379 20.4015 0.162389 18.4021C0.093697 17.9516 0.0843299 17.5011 0.03125 17.0506V16.8655C0.0718405 16.7945 0.040617 16.7205 0.0499841 16.6495C0.040617 16.5878 0.0687182 16.5199 0.03125 16.4613V15.5387C0.0718405 15.4801 0.040617 15.4122 0.0499841 15.3505C0.040617 15.2795 0.0718405 15.2024 0.03125 15.1345V14.9494C0.0780852 14.7025 0.0593511 14.4495 0.0874523 14.2027C0.23108 12.8821 0.543315 11.6016 1.01479 10.3581C1.55496 8.9326 2.29183 7.612 3.2098 6.39013C3.55638 5.93038 3.93419 5.50149 4.32448 5.07878C5.23933 4.08524 6.27907 3.2398 7.41561 2.5147C8.6864 1.70321 10.0477 1.07376 11.4996 0.64179C12.4551 0.357921 13.4293 0.160447 14.419 0.052454C14.6907 0.0246842 14.9623 0.0431974 15.2308 0H15.3058C15.4057 0.0308553 15.5056 0.0308553 15.6055 0H15.6805C15.7929 0.0308553 15.9053 0.0308553 16.0177 0H16.6515C16.7358 0.0401119 16.8264 0.00925658 16.9138 0.0185132C17.0012 0.00925658 17.0918 0.0401119 17.1761 0H17.2135V0Z" fill="#E5F1F7"/>
<path id="Vector_2" d="M13.0918 14.3471C13.0793 15.4055 13.1199 16.4638 13.0668 17.5191C13.0356 18.1608 12.9232 18.7872 12.6921 19.392C12.2519 20.5274 11.4494 21.2988 10.2661 21.6352C8.81418 22.0517 7.35604 22.0178 5.91351 21.5549C5.66373 21.4747 5.43267 21.3513 5.21411 21.2093C3.92458 20.3701 4.08382 18.6422 5.08921 17.8986C5.14542 17.8585 5.20162 17.8214 5.25782 17.7844C5.40769 17.6795 5.51385 17.6795 5.65748 17.84C6.33503 18.599 7.19992 18.889 8.20844 18.7378C8.83916 18.6422 9.19823 18.2195 9.2919 17.5283C9.32624 17.2846 9.33249 17.0377 9.33249 16.794C9.33249 15.0229 9.33249 13.2518 9.33249 11.4807C9.33249 11.2338 9.34498 10.9901 9.4043 10.7494C9.54481 10.157 9.91324 9.78364 10.5252 9.68799C10.9748 9.61702 11.4338 9.61702 11.8834 9.68799C12.5953 9.80524 13.0137 10.2897 13.0637 11.0302C13.1168 11.817 13.0793 12.6038 13.0887 13.3906C13.0918 13.7115 13.0887 14.0293 13.0887 14.3502L13.0918 14.3471Z" fill="#0078AD"/>
<path id="Vector_3" d="M17.9442 17.082C17.9286 18.1589 17.9754 19.2357 17.9254 20.3095C17.8817 21.2259 17.3416 21.7227 16.4142 21.735C16.2269 21.735 16.0395 21.7381 15.8553 21.735C14.953 21.7011 14.444 21.2136 14.3784 20.3218C14.3784 20.3095 14.3784 20.2972 14.3784 20.2848C14.3784 18.1496 14.3628 16.0175 14.3847 13.8823C14.3941 12.9659 14.9436 12.4599 15.8709 12.4322C16.1457 12.4229 16.4205 12.4198 16.6921 12.4507C17.4571 12.5371 17.8724 12.9937 17.9254 13.7805C17.9723 14.5056 17.9379 15.2307 17.9473 15.9558C17.9504 16.3323 17.9473 16.7056 17.9473 17.082H17.9442Z" fill="#0078AD"/>
<path id="Vector_4" d="M16.1833 11.4875C15.9335 11.4937 15.6868 11.4629 15.4464 11.3919C14.6346 11.1543 14.2006 10.5218 14.2568 9.66091C14.3068 8.88953 14.8501 8.32488 15.6587 8.19528C16.0834 8.1274 16.5018 8.13975 16.9139 8.26317C17.7195 8.50384 18.1285 9.11786 18.0754 9.99106C18.0286 10.7439 17.5103 11.2993 16.7235 11.4413C16.5455 11.4752 16.3644 11.4845 16.1864 11.4845L16.1833 11.4875Z" fill="#0078AD"/>
<path id="Vector_5" d="M28.9384 16.1752C28.6824 14.6232 27.8799 13.4476 26.3999 12.8151C24.8356 12.1486 23.237 12.1548 21.6633 12.7904C20.4612 13.2748 19.6401 14.1511 19.2061 15.3668C18.8844 16.2678 18.8439 17.1966 19.0093 18.1315C19.2685 19.6063 20.0428 20.7202 21.4229 21.3867C22.216 21.7693 23.0653 21.9051 24.0363 21.9112C24.4547 21.902 24.9699 21.865 25.4726 21.7384C26.9807 21.362 28.0891 20.5166 28.6668 19.0633C29.0352 18.1315 29.1008 17.1595 28.9415 16.1783L28.9384 16.1752ZM25.8723 17.8353C25.61 18.6776 24.8762 19.2021 23.9614 19.1991C22.8405 19.1991 22.0193 18.4153 21.96 17.286C21.9225 16.5702 22.0973 15.9222 22.6875 15.4594C23.3151 14.9657 24.0301 14.8948 24.7638 15.1817C25.482 15.4625 25.841 16.0395 25.9534 16.7769C26.0065 17.1348 25.9784 17.4897 25.8723 17.8353Z" fill="#0078AD"/>
</g>
<defs>
<clipPath id="clip0_1950_21892">
<rect width="32.3694" height="32" fill="white" transform="translate(0.03125)"/>
</clipPath>
</defs>
</svg>
