<svg width="88" height="28" viewBox="0 0 88 28" fill="none" xmlns="http://www.w3.org/2000/svg">
<path d="M33.9829 3.63281V11.994H32.0488V3.63281H33.9829Z" fill="white"/>
<path d="M41.3398 11.9942H39.5912V8.55822C39.5912 7.97732 39.5 7.56328 39.3144 7.313C39.1289 7.06272 38.8459 6.93913 38.459 6.93913C38.0722 6.93913 37.7514 7.06581 37.547 7.31918C37.3426 7.57255 37.2388 7.98659 37.2388 8.55822V11.9942H35.4902V5.74026H37.1665V6.6116H37.1916C37.396 6.29025 37.6665 6.03379 37.9967 5.8484C38.3301 5.66301 38.6855 5.57031 39.0628 5.57031C39.8271 5.57031 40.3963 5.77733 40.7737 6.19447C41.1511 6.60851 41.3398 7.23575 41.3398 8.0762V11.9972V11.9942Z" fill="white"/>
<path d="M46.2826 7.4096C46.2669 7.16859 46.1662 6.99247 45.987 6.88432C45.8077 6.77618 45.5435 6.72056 45.1976 6.72056C44.8768 6.72056 44.6378 6.77 44.4774 6.87197C44.317 6.97393 44.2384 7.11607 44.2384 7.30146C44.2384 7.44668 44.2824 7.56719 44.3736 7.65988C44.4648 7.75258 44.5969 7.82983 44.773 7.89471C44.9492 7.9596 45.1882 8.02449 45.4932 8.08937L46.2071 8.24696C46.855 8.39218 47.3361 8.61465 47.6475 8.91746C47.9588 9.22027 48.1161 9.61268 48.1161 10.0978C48.1161 10.5829 47.9871 10.9784 47.7293 11.2905C47.4714 11.6026 47.1286 11.825 46.7009 11.961C46.2732 12.0969 45.7983 12.168 45.2731 12.168C44.707 12.168 44.207 12.0908 43.7698 11.9394C43.3358 11.7849 42.993 11.5593 42.7414 11.2565C42.4898 10.9537 42.3672 10.5798 42.3672 10.138H44.0308C44.0403 10.4191 44.1598 10.6385 44.3957 10.7899C44.6284 10.9444 44.9271 11.0186 45.2888 11.0186C45.6002 11.0186 45.858 10.9568 46.0656 10.8363C46.27 10.7158 46.3738 10.5335 46.3738 10.2925C46.3738 10.0823 46.2795 9.90622 46.0908 9.76718C45.9021 9.62504 45.6033 9.51072 45.1913 9.42111L44.49 9.26353C44.0214 9.15847 43.6409 9.0287 43.3515 8.87111C43.0591 8.71353 42.8452 8.52196 42.7037 8.2964C42.5653 8.07084 42.493 7.79584 42.493 7.47449C42.493 7.06354 42.6093 6.71747 42.8389 6.4332C43.0685 6.15203 43.3893 5.93573 43.7981 5.79051C44.2101 5.64529 44.6881 5.57422 45.2385 5.57422C46.075 5.57422 46.726 5.7318 47.1915 6.04697C47.6538 6.36214 47.9022 6.81635 47.9368 7.41578H46.2857L46.2826 7.4096Z" fill="white"/>
<path d="M50.8677 9.17536C50.8677 9.75625 50.9589 10.1703 51.1445 10.4206C51.33 10.6709 51.6131 10.7944 51.9999 10.7944C52.3867 10.7944 52.7043 10.6678 52.9119 10.4144C53.1163 10.161 53.2201 9.74698 53.2201 9.17536V5.73942H54.9687V11.9933H53.2924V11.122H53.2673C53.0629 11.4433 52.7924 11.6998 52.4622 11.8852C52.132 12.0706 51.7734 12.1633 51.3961 12.1633C50.6318 12.1633 50.0626 11.9562 49.6852 11.5391C49.3078 11.1251 49.1191 10.4978 49.1191 9.65738V5.73633H50.8677V9.17227V9.17536Z" fill="white"/>
<path d="M60.3564 7.23966C60.2998 7.22421 60.2243 7.20876 60.1363 7.1964C60.0451 7.18404 59.9382 7.17786 59.8155 7.17786C59.2337 7.17786 58.7965 7.36017 58.5041 7.72168C58.2116 8.0832 58.0669 8.56831 58.0669 9.17392V11.9919H56.3184V5.74107H57.982V6.90286H58.0072C58.155 6.50118 58.3909 6.17674 58.7148 5.93573C59.0387 5.69472 59.4161 5.57422 59.8407 5.57422C60.0388 5.57422 60.2086 5.59585 60.3564 5.63602V7.24584V7.23966Z" fill="white"/>
<path d="M64.9549 7.89454C64.9549 7.48358 64.8763 7.18387 64.7159 6.99229C64.5555 6.80381 64.2788 6.70803 63.8856 6.70803C63.5397 6.70803 63.2787 6.76982 63.0963 6.89033C62.9139 7.01083 62.8101 7.20241 62.7755 7.45886H61.0395C61.0709 6.84707 61.3477 6.37741 61.8635 6.04988C62.3792 5.72236 63.0837 5.55859 63.9706 5.55859C64.914 5.55859 65.6059 5.75635 66.0462 6.15185C66.4865 6.54735 66.7066 7.16842 66.7066 8.01504V11.9948H65.131L65.0335 11.1853H65.0084C64.87 11.4664 64.6341 11.7013 64.3008 11.8867C63.9674 12.072 63.5523 12.1647 63.0522 12.1647C62.6088 12.1647 62.222 12.0875 61.8886 11.9361C61.5553 11.7847 61.3005 11.556 61.1181 11.2594C60.9389 10.9597 60.8477 10.6013 60.8477 10.181C60.8477 9.47964 61.1213 8.96363 61.6653 8.63302C62.2125 8.3024 62.9925 8.13555 64.0114 8.13555H64.9612V7.89454H64.9549ZM64.241 9.15212C63.7064 9.15212 63.3007 9.22009 63.0208 9.35914C62.7409 9.49509 62.6025 9.72683 62.6025 10.0482C62.6025 10.3294 62.6906 10.5426 62.8667 10.6847C63.0428 10.8268 63.2818 10.8979 63.5869 10.8979C63.851 10.8979 64.0869 10.8454 64.2945 10.7403C64.5052 10.6353 64.6656 10.4839 64.7819 10.2861C64.8983 10.0883 64.9549 9.84734 64.9549 9.56616V9.15521H64.241V9.15212Z" fill="white"/>
<path d="M73.8984 11.9942H72.1498V8.55822C72.1498 7.97732 72.0586 7.56328 71.873 7.313C71.6875 7.06272 71.4044 6.93913 71.0176 6.93913C70.6308 6.93913 70.31 7.06581 70.1056 7.31918C69.9012 7.57255 69.7974 7.98659 69.7974 8.55822V11.9942H68.0488V5.74026H69.7251V6.6116H69.7502C69.9546 6.29025 70.2251 6.03379 70.5553 5.8484C70.8887 5.66301 71.2441 5.57031 71.6214 5.57031C72.3857 5.57031 72.9549 5.77733 73.3323 6.19447C73.7097 6.60851 73.8984 7.23575 73.8984 8.0762V11.9972V11.9942Z" fill="white"/>
<path d="M79.363 7.74867C79.3316 7.45823 79.2184 7.24193 79.0234 7.09671C78.8284 6.95149 78.5642 6.88042 78.2277 6.88042C77.7529 6.88042 77.3786 7.05345 77.1144 7.39952C76.8471 7.74558 76.715 8.22142 76.715 8.82704C76.715 9.43265 76.8408 9.95175 77.0893 10.3164C77.3409 10.6779 77.7057 10.8602 78.19 10.8602C78.5359 10.8602 78.8127 10.7767 79.0203 10.6068C79.231 10.4369 79.3536 10.1835 79.3945 9.84361H81.0802C81.0236 10.3349 80.8632 10.7551 80.599 11.1012C80.3348 11.4472 79.992 11.713 79.5643 11.8922C79.1366 12.0745 78.646 12.1641 78.0862 12.1641C77.4384 12.1641 76.8786 12.0251 76.4037 11.747C75.932 11.4689 75.5734 11.0826 75.325 10.5914C75.0797 10.1001 74.957 9.54389 74.957 8.92282C74.957 8.24614 75.0954 7.65598 75.3753 7.14924C75.6552 6.64559 76.042 6.25626 76.5389 5.98127C77.0358 5.70627 77.605 5.57031 78.2435 5.57031C78.7781 5.57031 79.2498 5.65992 79.6587 5.83604C80.0675 6.01216 80.3946 6.26553 80.6367 6.59306C80.8789 6.92059 81.011 7.30373 81.0361 7.74867H79.3505H79.363Z" fill="white"/>
<path d="M87.9842 9.28352H83.5153C83.5404 9.81498 83.682 10.2136 83.9461 10.4762C84.2072 10.7389 84.5877 10.8686 85.0783 10.8686C85.4148 10.8686 85.6947 10.8037 85.9149 10.674C86.1381 10.5442 86.2734 10.3804 86.3205 10.1765H87.871C87.698 10.8223 87.3647 11.3136 86.8678 11.6535C86.3709 11.9933 85.745 12.1602 84.9902 12.1602C84.333 12.1602 83.7637 12.0242 83.2794 11.7554C82.7951 11.4866 82.424 11.1035 82.1661 10.606C81.9082 10.1085 81.7793 9.53071 81.7793 8.86948C81.7793 8.24842 81.9114 7.68606 82.1787 7.18241C82.446 6.67876 82.8203 6.28326 83.2983 5.9959C83.7795 5.70854 84.3267 5.56641 84.9431 5.56641C85.6004 5.56641 86.157 5.71472 86.613 6.00826C87.069 6.3018 87.415 6.70966 87.6477 7.22567C87.8804 7.74168 87.9999 8.32566 87.9999 8.98071L87.9873 9.28352H87.9842ZM86.2482 8.19589C86.1664 7.30909 85.723 6.86415 84.9179 6.86415C84.5154 6.86415 84.1946 6.98157 83.9524 7.2164C83.7103 7.45123 83.5656 7.77567 83.5153 8.19589H86.2482Z" fill="white"/>
<path d="M38.8191 17.4499C38.8191 17.8609 38.7216 18.207 38.5297 18.4912C38.3379 18.7724 38.0517 19.0072 37.6743 19.1926V19.2173C38.1901 19.3626 38.58 19.6159 38.8379 19.9744C39.0958 20.3328 39.2248 20.7777 39.2248 21.3123C39.2248 21.8468 39.0895 22.2825 38.8191 22.6502C38.5486 23.0179 38.1838 23.2929 37.7278 23.4721C37.2718 23.6544 36.7749 23.744 36.2308 23.744H32.0449V15.3828H36.1207C37.9196 15.3828 38.8191 16.0719 38.8191 17.453V17.4499ZM36.6585 18.5159C36.8503 18.3553 36.9478 18.1112 36.9478 17.7898C36.9478 17.178 36.5421 16.869 35.7276 16.869H33.979V18.757H35.8377C36.1899 18.757 36.4635 18.6766 36.6554 18.5159H36.6585ZM36.9478 21.989C37.1774 21.8128 37.2938 21.544 37.2938 21.1918C37.2938 20.8117 37.1806 20.5274 36.9541 20.3328C36.7277 20.1381 36.4101 20.0423 36.0012 20.0423H33.9822V22.2578H35.954C36.388 22.2578 36.7214 22.1682 36.951 21.992L36.9478 21.989Z" fill="white"/>
<path d="M44.4072 18.9888C44.3506 18.9734 44.2751 18.9579 44.1871 18.9456C44.0959 18.9332 43.9889 18.927 43.8663 18.927C43.2845 18.927 42.8473 19.1094 42.5549 19.4709C42.2624 19.8324 42.1177 20.3175 42.1177 20.9231V23.7411H40.3691V17.4872H42.0328V18.649H42.058C42.2058 18.2473 42.4416 17.9228 42.7656 17.6818C43.0895 17.4408 43.4669 17.3203 43.8914 17.3203C44.0896 17.3203 44.2594 17.3419 44.4072 17.3821V18.9919V18.9888Z" fill="white"/>
<path d="M50.9119 22.356C50.6415 22.8535 50.2641 23.2366 49.7798 23.5054C49.2955 23.7742 48.7357 23.9102 48.1035 23.9102C47.4714 23.9102 46.8896 23.7742 46.4053 23.4992C45.921 23.2242 45.5467 22.8411 45.2857 22.3436C45.0215 21.8462 44.8926 21.2714 44.8926 20.6195C44.8926 19.9675 45.0247 19.3804 45.2857 18.883C45.5499 18.3855 45.921 18.0024 46.4053 17.7274C46.8896 17.4524 47.4557 17.3164 48.1035 17.3164C48.7514 17.3164 49.3175 17.4524 49.8018 17.7274C50.2861 18.0024 50.6603 18.3886 50.9214 18.8892C51.1824 19.3897 51.3145 19.9675 51.3145 20.6195C51.3145 21.2714 51.1793 21.8585 50.9088 22.356H50.9119ZM49.1948 22.0841C49.4464 21.738 49.5691 21.2498 49.5691 20.6195C49.5691 20.0386 49.4527 19.5597 49.2231 19.1858C48.9935 18.8119 48.6162 18.6234 48.091 18.6234C47.6318 18.6234 47.2733 18.7965 47.0185 19.1425C46.7638 19.4886 46.638 19.983 46.638 20.6195C46.638 21.256 46.7638 21.7473 47.0123 22.0903C47.2638 22.4332 47.6255 22.6032 48.1035 22.6032C48.5816 22.6032 48.9432 22.4301 49.1948 22.0841Z" fill="white"/>
<path d="M54.2322 19.7479H54.2573L56.3519 17.4861H58.396L55.7229 20.1712C55.9525 20.2207 56.1789 20.3412 56.399 20.5327C56.6192 20.7274 56.9054 21.0673 57.2544 21.5555C57.6035 22.0437 58.0721 22.7729 58.6634 23.74H56.5689C56.116 22.949 55.7984 22.4052 55.6097 22.1055C55.421 21.8058 55.2543 21.5987 55.1096 21.4752C54.965 21.3546 54.8046 21.2928 54.6222 21.2928L54.229 21.6791V23.7369H52.4805V15.0977H54.229V19.7448L54.2322 19.7479Z" fill="white"/>
<path d="M61.132 16.1337C61.0471 16.2789 60.9245 16.3933 60.7672 16.4798C60.61 16.5632 60.4339 16.6065 60.2389 16.6065C60.0439 16.6065 59.8646 16.5632 59.7105 16.4798C59.5533 16.3963 59.4338 16.2789 59.3457 16.1337C59.2608 15.9885 59.2168 15.8247 59.2168 15.6362C59.2168 15.4478 59.2608 15.284 59.3457 15.1388C59.4306 14.9935 59.5533 14.8792 59.7105 14.7927C59.8678 14.7093 60.0439 14.666 60.2389 14.666C60.4339 14.666 60.6131 14.7093 60.7672 14.7927C60.9245 14.8761 61.044 14.9935 61.132 15.1388C61.217 15.284 61.261 15.4508 61.261 15.6362C61.261 15.8216 61.217 15.9885 61.132 16.1337ZM61.1132 17.4902V23.7441H59.3646V17.4902H61.1132Z" fill="white"/>
<path d="M68.3554 23.7442H66.6068V20.3082C66.6068 19.7273 66.5156 19.3133 66.3301 19.063C66.1445 18.8127 65.8615 18.6891 65.4747 18.6891C65.0878 18.6891 64.7671 18.8158 64.5626 19.0692C64.3582 19.3226 64.2544 19.7366 64.2544 20.3082V23.7442H62.5059V17.4903H64.1821V18.3616H64.2073C64.4117 18.0403 64.6821 17.7838 65.0124 17.5984C65.3457 17.413 65.7011 17.3203 66.0785 17.3203C66.8427 17.3203 67.4119 17.5273 67.7893 17.9445C68.1667 18.3585 68.3554 18.9858 68.3554 19.8262V23.7472V23.7442Z" fill="white"/>
<path d="M73.9445 18.3206V17.4863H75.6207V23.354C75.6207 23.9102 75.5044 24.3953 75.2685 24.8063C75.0358 25.2172 74.6773 25.5386 74.1961 25.7672C73.7149 25.9959 73.1142 26.1133 72.3909 26.1133C71.872 26.1133 71.4128 26.0391 71.004 25.8908C70.5983 25.7425 70.2744 25.5293 70.0385 25.2481C69.7995 24.97 69.6706 24.6363 69.6454 24.2501H71.3814C71.438 24.4911 71.5669 24.6703 71.7682 24.7815C71.9695 24.8959 72.2274 24.9515 72.5387 24.9515C72.9916 24.9515 73.3375 24.8279 73.5797 24.5838C73.8218 24.3366 73.9413 23.9844 73.9413 23.524V22.8349H73.9162C73.7526 23.1408 73.5073 23.3787 73.1834 23.5487C72.8595 23.7186 72.4915 23.802 72.0827 23.802C71.5072 23.802 71.0229 23.6661 70.6298 23.3911C70.2366 23.1161 69.941 22.733 69.7429 22.2417C69.5448 21.7504 69.4473 21.1818 69.4473 20.5361C69.4473 19.9644 69.551 19.433 69.7555 18.9448C69.9599 18.4566 70.2649 18.0642 70.6675 17.7644C71.07 17.4647 71.5449 17.3164 72.0953 17.3164C72.5293 17.3164 72.8972 17.3998 73.1897 17.5636C73.4853 17.7304 73.7275 17.9807 73.9162 18.3206H73.9413H73.9445ZM71.5323 21.945C71.7525 22.3127 72.089 22.495 72.5419 22.495C72.8375 22.495 73.0922 22.4147 73.3061 22.254C73.5199 22.0933 73.6803 21.874 73.7935 21.5959C73.9068 21.3178 73.9602 21.0026 73.9602 20.6473C73.9602 20.0911 73.8501 19.6153 73.6331 19.2198C73.4161 18.8243 73.0482 18.6265 72.5324 18.6265C72.2525 18.6265 72.0135 18.7068 71.8122 18.8675C71.611 19.0282 71.46 19.2507 71.3562 19.5318C71.2524 19.813 71.2021 20.1405 71.2021 20.5113C71.2021 21.1015 71.3122 21.5773 71.5355 21.945H71.5323Z" fill="white"/>
<g clip-path="url(#clip0_1950_51686)">
<path d="M15.1204 0C15.2496 0.0674959 15.3952 0.0431974 15.5326 0.0566966C17.7554 0.256484 19.8272 0.917944 21.7121 2.08427C25.056 4.15505 27.1992 7.08707 28.1196 10.8641C28.5071 12.4543 28.5785 14.0661 28.3752 15.6887C27.9932 18.7315 26.7321 21.3773 24.5944 23.6074C22.4292 25.8617 19.7777 27.2494 16.6728 27.7975C16.1893 27.8839 15.6974 27.9379 15.2056 27.9676C15.1754 27.9676 15.1369 27.9595 15.1232 28H15.0572C14.994 27.9649 14.9226 27.9919 14.8566 27.9838C14.7825 27.9919 14.7028 27.9649 14.6286 28H14.0708C13.9719 27.973 13.873 27.973 13.7741 28H13.6751C13.5982 27.973 13.5213 27.973 13.4443 28H13.3454C13.1146 27.9595 12.8783 27.9784 12.6475 27.9541C11.3314 27.8137 10.062 27.4978 8.83925 27.0038C7.38848 26.4179 6.07235 25.6214 4.88535 24.6117C3.67363 23.5804 2.66799 22.3816 1.86841 21.0209C0.967179 19.4901 0.384674 17.8513 0.115402 16.1018C0.0549534 15.7076 0.0467104 15.3135 0 14.9193V14.7573C0.0357197 14.6952 0.008243 14.6304 0.016486 14.5683C0.008243 14.5143 0.032972 14.4549 0 14.4036V13.5964C0.0357197 13.5451 0.008243 13.4857 0.016486 13.4317C0.008243 13.3696 0.0357197 13.3021 0 13.2427V13.0807C0.041215 12.8647 0.024729 12.6433 0.049458 12.4273C0.175851 11.2718 0.450618 10.1514 0.865515 9.06335C1.34086 7.81603 1.98931 6.6605 2.79713 5.59136C3.10212 5.18909 3.43459 4.81381 3.77804 4.44393C4.58311 3.57458 5.49808 2.83483 6.49823 2.20037C7.61654 1.49031 8.81452 0.939543 10.0922 0.561566C10.933 0.313181 11.7902 0.140391 12.6613 0.0458972C12.9003 0.0215987 13.1393 0.0377977 13.3756 0H13.4416C13.5295 0.0269984 13.6174 0.0269984 13.7054 0H13.7713C13.8702 0.0269984 13.9691 0.0269984 14.0681 0H14.6258C14.7 0.0350979 14.7797 0.00809951 14.8566 0.016199C14.9336 0.00809951 15.0133 0.0350979 15.0874 0H15.1204V0Z" fill="#1ECCB0"/>
<path d="M11.4927 12.555C11.4817 13.481 11.5175 14.4071 11.4708 15.3304C11.4433 15.892 11.3444 16.44 11.141 16.9692C10.7536 17.9627 10.0475 18.6377 9.00609 18.932C7.72843 19.2965 6.44527 19.2668 5.17585 18.8618C4.95603 18.7916 4.75271 18.6836 4.56037 18.5594C3.42558 17.825 3.56571 16.3131 4.45046 15.6625C4.49992 15.6274 4.54938 15.595 4.59884 15.5626C4.73072 15.4708 4.82414 15.4708 4.95054 15.6112C5.54678 16.2753 6.30789 16.5291 7.19538 16.3968C7.75041 16.3131 8.06639 15.9433 8.14882 15.3385C8.17905 15.1252 8.18454 14.9092 8.18454 14.6959C8.18454 13.1462 8.18454 11.5965 8.18454 10.0468C8.18454 9.83083 8.19553 9.61754 8.24774 9.40696C8.37138 8.88859 8.69561 8.56191 9.23415 8.47821C9.62982 8.41612 10.0337 8.41612 10.4294 8.47821C11.0559 8.58081 11.424 9.00468 11.468 9.65264C11.5147 10.3411 11.4817 11.0296 11.49 11.718C11.4927 11.9988 11.49 12.2769 11.49 12.5577L11.4927 12.555Z" fill="white"/>
<path d="M15.7637 14.9453C15.7499 15.8876 15.7912 16.8298 15.7472 17.7693C15.7087 18.5712 15.2334 19.0059 14.4173 19.0167C14.2525 19.0167 14.0876 19.0194 13.9255 19.0167C13.1314 18.987 12.6835 18.5604 12.6258 17.7801C12.6258 17.7693 12.6258 17.7585 12.6258 17.7477C12.6258 15.8795 12.6121 14.0139 12.6313 12.1456C12.6396 11.3437 13.1232 10.901 13.9392 10.8767C14.181 10.8686 14.4228 10.8659 14.6619 10.8929C15.335 10.9685 15.7005 11.368 15.7472 12.0565C15.7884 12.691 15.7582 13.3254 15.7664 13.9599C15.7692 14.2893 15.7664 14.6159 15.7664 14.9453H15.7637Z" fill="white"/>
<path d="M14.2133 10.0514C13.9934 10.0568 13.7764 10.0298 13.5648 9.96766C12.8504 9.75977 12.4685 9.20631 12.5179 8.45305C12.5619 7.77809 13.04 7.28402 13.7516 7.17063C14.1253 7.11123 14.4935 7.12203 14.8562 7.23003C15.5651 7.44061 15.9251 7.97788 15.8783 8.74194C15.8371 9.4007 15.381 9.88667 14.6886 10.0109C14.532 10.0406 14.3726 10.0487 14.216 10.0487L14.2133 10.0514Z" fill="white"/>
<path d="M25.4386 14.1516C25.2133 12.7936 24.5072 11.765 23.2048 11.2115C21.8282 10.6283 20.4214 10.6337 19.0366 11.1899C17.9787 11.6138 17.2561 12.3805 16.8741 13.4443C16.5911 14.2326 16.5554 15.0453 16.701 15.8633C16.9291 17.1538 17.6105 18.1285 18.825 18.7117C19.5229 19.0464 20.2703 19.1652 21.1248 19.1706C21.493 19.1625 21.9463 19.1301 22.3887 19.0194C23.7158 18.6901 24.6913 17.9503 25.1996 16.6787C25.5238 15.8633 25.5815 15.0129 25.4414 14.1543L25.4386 14.1516ZM22.7404 15.6041C22.5096 16.3412 21.8639 16.8002 21.0588 16.7975C20.0724 16.7975 19.3498 16.1117 19.2976 15.1236C19.2646 14.4972 19.4185 13.9302 19.9378 13.5253C20.4901 13.0933 21.1193 13.0312 21.765 13.2823C22.397 13.528 22.7129 14.0328 22.8118 14.6781C22.8586 14.9913 22.8338 15.3018 22.7404 15.6041Z" fill="white"/>
</g>
<defs>
<clipPath id="clip0_1950_51686">
<rect width="28.4851" height="28" fill="white"/>
</clipPath>
</defs>
</svg>
