<svg width="12" height="12" viewBox="0 0 12 12" fill="none" xmlns="http://www.w3.org/2000/svg">
<path d="M8.5 4H9V4.5C9 4.63261 9.05268 4.75979 9.14645 4.85355C9.24021 4.94732 9.36739 5 9.5 5C9.63261 5 9.75979 4.94732 9.85355 4.85355C9.94732 4.75979 10 4.63261 10 4.5V4H10.5C10.6326 4 10.7598 3.94732 10.8536 3.85355C10.9473 3.75979 11 3.63261 11 3.5C11 3.36739 10.9473 3.24021 10.8536 3.14645C10.7598 3.05268 10.6326 3 10.5 3H10V2.5C10 2.36739 9.94732 2.24021 9.85355 2.14645C9.75979 2.05268 9.63261 2 9.5 2C9.36739 2 9.24021 2.05268 9.14645 2.14645C9.05268 2.24021 9 2.36739 9 2.5V3H8.5C8.36739 3 8.24021 3.05268 8.14645 3.14645C8.05268 3.24021 8 3.36739 8 3.5C8 3.63261 8.05268 3.75979 8.14645 3.85355C8.24021 3.94732 8.36739 4 8.5 4ZM9.5 6H4V5.5C4 5.10218 3.84196 4.72064 3.56066 4.43934C3.27936 4.15804 2.89782 4 2.5 4H2V2.5C2 2.36739 1.94732 2.24021 1.85355 2.14645C1.75979 2.05268 1.63261 2 1.5 2C1.36739 2 1.24021 2.05268 1.14645 2.14645C1.05268 2.24021 1 2.36739 1 2.5V9.5C1 9.63261 1.05268 9.75979 1.14645 9.85355C1.24021 9.94732 1.36739 10 1.5 10C1.63261 10 1.75979 9.94732 1.85355 9.85355C1.94732 9.75979 2 9.63261 2 9.5V9H10V9.5C10 9.63261 10.0527 9.75979 10.1464 9.85355C10.2402 9.94732 10.3674 10 10.5 10C10.6326 10 10.7598 9.94732 10.8536 9.85355C10.9473 9.75979 11 9.63261 11 9.5V7.5C11 7.10218 10.842 6.72064 10.5607 6.43934C10.2794 6.15804 9.89782 6 9.5 6Z" fill="#0C5273"/>
</svg>
