<svg width="28" height="28" viewBox="0 0 28 28" fill="none" xmlns="http://www.w3.org/2000/svg">
<path d="M20.4434 24.1173C19.2457 25.2783 17.9381 25.095 16.6794 24.5451C15.3473 23.9829 14.1253 23.9585 12.7199 24.5451C10.9601 25.3027 10.0313 25.0828 8.98037 24.1173C3.01668 17.9703 3.89657 8.60929 10.6668 8.26711C12.3166 8.35266 13.4654 9.17144 14.4308 9.24477C15.8728 8.95147 17.2538 8.10824 18.7936 8.21823C20.6389 8.36488 22.0321 9.09812 22.9486 10.418C19.1358 12.7032 20.0401 17.7259 23.5352 19.1313C22.8386 20.9644 21.9343 22.7853 20.4311 24.1296L20.4434 24.1173ZM14.3086 8.19379C14.1253 5.46858 16.3372 3.21997 18.8791 3C19.2335 6.15294 16.0195 8.49931 14.3086 8.19379Z" fill="white"/>
</svg>
