<svg width="61" height="60" viewBox="0 0 61 60" fill="none" xmlns="http://www.w3.org/2000/svg">
<circle opacity="0.2" cx="45.0186" cy="19" r="10" fill="#E5F1F7"/>
<path d="M41.2318 29.0197L39.6335 24.2247C39.3915 23.5402 38.9425 22.9478 38.3489 22.5298C37.7552 22.1117 37.0462 21.8886 36.3202 21.8914H25.6452C24.9143 21.8878 24.2006 22.1132 23.6043 22.5359C23.008 22.9585 22.5589 23.5573 22.3202 24.2481L20.7568 29.0197C20.3351 29.1984 19.9752 29.4972 19.7221 29.8789C19.469 30.2606 19.3339 30.7084 19.3335 31.1664V34.6664C19.336 35.0736 19.4449 35.4731 19.6496 35.8251C19.8543 36.1771 20.1475 36.4695 20.5002 36.6731V38.1664C20.5002 38.4758 20.6231 38.7726 20.8419 38.9914C21.0607 39.2101 21.3574 39.3331 21.6668 39.3331C21.9762 39.3331 22.273 39.2101 22.4918 38.9914C22.7106 38.7726 22.8335 38.4758 22.8335 38.1664V36.9997H39.1668V38.1664C39.1668 38.4758 39.2897 38.7726 39.5085 38.9914C39.7273 39.2101 40.0241 39.3331 40.3335 39.3331C40.6429 39.3331 40.9397 39.2101 41.1585 38.9914C41.3772 38.7726 41.5002 38.4758 41.5002 38.1664V36.6731C41.8528 36.4695 42.1461 36.1771 42.3507 35.8251C42.5554 35.4731 42.6644 35.0736 42.6668 34.6664V31.1664C42.6655 30.7071 42.5286 30.2583 42.2733 29.8765C42.0181 29.4946 41.6558 29.1966 41.2318 29.0197ZM24.5368 24.9714C24.6159 24.7277 24.773 24.5169 24.9839 24.3714C25.1947 24.2259 25.4476 24.1539 25.7035 24.1664H36.3785C36.6329 24.1531 36.8847 24.2235 37.0953 24.3667C37.306 24.51 37.464 24.7183 37.5452 24.9597L38.7118 28.8331H23.2768L24.5368 24.9714ZM24.8285 33.1381C24.6365 33.3303 24.3834 33.4494 24.1129 33.475C23.8424 33.5006 23.5715 33.4309 23.3468 33.2781C23.1553 33.1514 23.0084 32.9677 22.9268 32.7531C22.8335 32.5488 22.8011 32.322 22.8335 32.0997C22.8766 31.8681 22.9889 31.655 23.1555 31.4884C23.3221 31.3218 23.5352 31.2095 23.7668 31.1664C23.9943 31.122 24.2299 31.1464 24.4435 31.2364C24.6582 31.318 24.8418 31.4649 24.9685 31.6564C25.1213 31.881 25.191 32.152 25.1654 32.4225C25.1399 32.6929 25.0207 32.946 24.8285 33.1381ZM38.8285 33.1381C38.6365 33.3303 38.3834 33.4494 38.1129 33.475C37.8424 33.5006 37.5715 33.4309 37.3468 33.2781C37.1553 33.1514 37.0084 32.9677 36.9268 32.7531C36.8335 32.5488 36.8011 32.322 36.8335 32.0997C36.8766 31.8681 36.9889 31.655 37.1555 31.4884C37.3221 31.3218 37.5352 31.2095 37.7668 31.1664C37.9943 31.122 38.2299 31.1464 38.4435 31.2364C38.6582 31.318 38.8418 31.4649 38.9685 31.6564C39.1213 31.881 39.191 32.152 39.1654 32.4225C39.1399 32.6929 39.0207 32.946 38.8285 33.1381Z" fill="#0C5273"/>
<path d="M1.48145 8C1.48145 3.85786 4.83931 0.5 8.98145 0.5H52.9814C57.1236 0.5 60.4814 3.85786 60.4814 8V52C60.4814 56.1421 57.1236 59.5 52.9814 59.5H8.98144C4.83931 59.5 1.48145 56.1421 1.48145 52V8Z" stroke="#E5F1F7"/>
</svg>
