<svg width="61" height="60" viewBox="0 0 61 60" fill="none" xmlns="http://www.w3.org/2000/svg">
<circle opacity="0.2" cx="44.9814" cy="19" r="10" fill="#E5F1F7"/>
<path d="M36.8701 25.3334H38.0368V26.5001C38.0368 26.8095 38.1597 27.1062 38.3785 27.325C38.5973 27.5438 38.894 27.6667 39.2034 27.6667C39.5129 27.6667 39.8096 27.5438 40.0284 27.325C40.2472 27.1062 40.3701 26.8095 40.3701 26.5001V25.3334H41.5368C41.8462 25.3334 42.143 25.2105 42.3617 24.9917C42.5805 24.7729 42.7034 24.4762 42.7034 24.1667C42.7034 23.8573 42.5805 23.5606 42.3617 23.3418C42.143 23.123 41.8462 23.0001 41.5368 23.0001H40.3701V21.8334C40.3701 21.524 40.2472 21.2272 40.0284 21.0085C39.8096 20.7897 39.5129 20.6667 39.2034 20.6667C38.894 20.6667 38.5973 20.7897 38.3785 21.0085C38.1597 21.2272 38.0368 21.524 38.0368 21.8334V23.0001H36.8701C36.5607 23.0001 36.264 23.123 36.0452 23.3418C35.8264 23.5606 35.7034 23.8573 35.7034 24.1667C35.7034 24.4762 35.8264 24.7729 36.0452 24.9917C36.264 25.2105 36.5607 25.3334 36.8701 25.3334ZM39.2034 30.0001H26.3701V28.8334C26.3701 27.9052 26.0014 27.0149 25.345 26.3585C24.6886 25.7022 23.7984 25.3334 22.8701 25.3334H21.7035V21.8334C21.7035 21.524 21.5805 21.2272 21.3617 21.0085C21.1429 20.7897 20.8462 20.6667 20.5368 20.6667C20.2274 20.6667 19.9306 20.7897 19.7118 21.0085C19.493 21.2272 19.3701 21.524 19.3701 21.8334V38.1667C19.3701 38.4762 19.493 38.7729 19.7118 38.9917C19.9306 39.2105 20.2274 39.3334 20.5368 39.3334C20.8462 39.3334 21.1429 39.2105 21.3617 38.9917C21.5805 38.7729 21.7035 38.4762 21.7035 38.1667V37.0001H40.3701V38.1667C40.3701 38.4762 40.493 38.7729 40.7118 38.9917C40.9306 39.2105 41.2274 39.3334 41.5368 39.3334C41.8462 39.3334 42.143 39.2105 42.3617 38.9917C42.5805 38.7729 42.7034 38.4762 42.7034 38.1667V33.5001C42.7034 32.5718 42.3347 31.6816 41.6783 31.0252C41.0219 30.3688 40.1317 30.0001 39.2034 30.0001Z" fill="#0C5273"/>
<path d="M1.44434 8C1.44434 3.85786 4.8022 0.5 8.94434 0.5H52.9443C57.0865 0.5 60.4443 3.85786 60.4443 8V52C60.4443 56.1421 57.0865 59.5 52.9443 59.5H8.94434C4.8022 59.5 1.44434 56.1421 1.44434 52V8Z" stroke="#E5F1F7"/>
</svg>
