<svg width="61" height="60" viewBox="0 0 61 60" fill="none" xmlns="http://www.w3.org/2000/svg">
<circle opacity="0.2" cx="45" cy="19" r="10" fill="#E5F1F7"/>
<path d="M35.1997 20.6667C33.6413 20.7151 32.1516 21.3193 30.9997 22.37C29.8478 21.3193 28.3581 20.7151 26.7997 20.6667C25.9667 20.6604 25.1408 20.8206 24.3705 21.1379C23.6003 21.4552 22.9012 21.9232 22.3143 22.5144C21.7274 23.1056 21.2646 23.8082 20.953 24.5808C20.6414 25.3533 20.4873 26.1804 20.4997 27.0133C20.5019 27.6273 20.5803 28.2387 20.7331 28.8333H23.3697L25.3647 25.8583C25.4767 25.6876 25.6316 25.5493 25.8138 25.4572C25.996 25.365 26.1992 25.3223 26.4031 25.3333C26.6064 25.3464 26.8029 25.4125 26.9728 25.5251C27.1427 25.6377 27.2801 25.7928 27.3714 25.975L29.9731 31.1667L31.1981 29.3467C31.3051 29.1884 31.4493 29.0587 31.6182 28.9692C31.787 28.8797 31.9753 28.8331 32.1664 28.8333H34.4997C34.8091 28.8333 35.1059 28.9563 35.3247 29.1751C35.5435 29.3939 35.6664 29.6906 35.6664 30C35.6664 30.3094 35.5435 30.6062 35.3247 30.825C35.1059 31.0438 34.8091 31.1667 34.4997 31.1667H32.7964L30.8014 34.1417C30.6957 34.3022 30.552 34.4341 30.3831 34.5257C30.2142 34.6172 30.0252 34.6657 29.8331 34.6667H29.7631C29.5597 34.6536 29.3632 34.5875 29.1933 34.4749C29.0235 34.3624 28.886 34.2072 28.7947 34.025L26.1931 28.8333L25.0264 30.6533C24.914 30.8201 24.7604 30.9551 24.5806 31.045C24.4007 31.135 24.2006 31.1769 23.9997 31.1667H21.6664C23.0081 33.6633 25.4814 36.2417 28.8764 39.3333L29.4481 39.8584C29.8782 40.2519 30.4401 40.4701 31.0231 40.4701C31.606 40.4701 32.1679 40.2519 32.5981 39.8584L33.1697 39.345C38.4314 34.5034 41.4997 30.9333 41.4997 27.0133C41.5122 26.1804 41.3581 25.3533 41.0465 24.5808C40.7349 23.8082 40.272 23.1056 39.6851 22.5144C39.0983 21.9232 38.3992 21.4552 37.6289 21.1379C36.8587 20.8206 36.0328 20.6604 35.1997 20.6667Z" fill="#0C5273"/>
<rect x="1.46289" y="0.5" width="59" height="59" rx="7.5" stroke="#E5F1F7"/>
</svg>
