<svg width="60" height="60" viewBox="0 0 60 60" fill="none" xmlns="http://www.w3.org/2000/svg">
<circle opacity="0.2" cx="44.0371" cy="19" r="10" fill="#E5F1F7"/>
<path d="M39.1352 31.3183L37.7002 24.8666C37.8487 25.3388 38.1435 25.7515 38.542 26.0451C38.9404 26.3387 39.4219 26.498 39.9169 26.4999C40.0716 26.4999 40.22 26.4385 40.3294 26.3291C40.4388 26.2197 40.5002 26.0713 40.5002 25.9166V22.4166C40.5002 22.2619 40.4388 22.1135 40.3294 22.0041C40.22 21.8947 40.0716 21.8333 39.9169 21.8333C39.2981 21.8333 38.7046 22.0791 38.267 22.5167C37.8294 22.9543 37.5836 23.5478 37.5836 24.1666C37.5721 24.2674 37.5721 24.3692 37.5836 24.4699L37.0002 21.5766C36.941 21.3134 36.7923 21.0789 36.5796 20.913C36.3669 20.7471 36.1032 20.66 35.8336 20.6666H33.5002C33.1908 20.6666 32.8941 20.7895 32.6753 21.0083C32.4565 21.2271 32.3336 21.5239 32.3336 21.8333C32.3336 22.1427 32.4565 22.4394 32.6753 22.6582C32.8941 22.877 33.1908 22.9999 33.5002 22.9999H34.9002L35.3319 24.9833C34.6387 24.4527 33.7898 24.1657 32.9169 24.1666H30.5836C29.8133 24.1693 29.0595 24.3898 28.4092 24.8027C27.7589 25.2156 27.2387 25.804 26.9086 26.4999H20.6669C20.0481 26.4999 19.4546 26.7458 19.017 27.1834C18.5794 27.6209 18.3336 28.2144 18.3336 28.8333C18.3336 29.4521 18.5794 30.0456 19.017 30.4832C19.4546 30.9208 20.0481 31.1666 20.6669 31.1666H21.8336C21.1915 31.1648 20.5613 31.3397 20.0119 31.672C19.4626 32.0044 19.0152 32.4815 18.7189 33.0511C18.4225 33.6207 18.2885 34.2608 18.3316 34.9015C18.3747 35.5421 18.5932 36.1585 18.9632 36.6833C19.3331 37.2081 19.8403 37.621 20.4292 37.8768C21.0181 38.1326 21.6661 38.2215 22.3021 38.1337C22.9382 38.046 23.5378 37.7849 24.0355 37.3792C24.5331 36.9734 24.9095 36.4386 25.1236 35.8333H31.3652C32.2932 35.8325 33.1828 35.4632 33.8386 34.8066L34.7602 33.8849C34.6043 34.5517 34.6473 35.2496 34.8841 35.8921C35.1208 36.5346 35.5408 37.0936 36.0921 37.4998C36.6434 37.906 37.3017 38.1415 37.9856 38.1773C38.6694 38.213 39.3487 38.0474 39.9393 37.7009C40.5299 37.3544 41.0059 36.8422 41.3084 36.2279C41.6108 35.6135 41.7264 34.924 41.6408 34.2446C41.5552 33.5652 41.2722 32.9258 40.8269 32.4057C40.3815 31.8855 39.7933 31.5075 39.1352 31.3183ZM21.8336 35.8333C21.6028 35.8333 21.3773 35.7649 21.1854 35.6367C20.9935 35.5085 20.844 35.3263 20.7557 35.1131C20.6674 34.8999 20.6443 34.6653 20.6893 34.439C20.7343 34.2127 20.8454 34.0048 21.0086 33.8417C21.1718 33.6785 21.3796 33.5674 21.606 33.5224C21.8323 33.4773 22.0668 33.5004 22.28 33.5887C22.4932 33.6771 22.6754 33.8266 22.8036 34.0184C22.9318 34.2103 23.0002 34.4359 23.0002 34.6666C23.0002 34.976 22.8773 35.2728 22.6585 35.4916C22.4397 35.7104 22.143 35.8333 21.8336 35.8333ZM38.1669 35.8333C37.9361 35.8333 37.7106 35.7649 37.5187 35.6367C37.3269 35.5085 37.1773 35.3263 37.089 35.1131C37.0007 34.8999 36.9776 34.6653 37.0226 34.439C37.0677 34.2127 37.1788 34.0048 37.3419 33.8417C37.5051 33.6785 37.713 33.5674 37.9393 33.5224C38.1656 33.4773 38.4002 33.5004 38.6134 33.5887C38.8265 33.6771 39.0087 33.8266 39.1369 34.0184C39.2651 34.2103 39.3336 34.4359 39.3336 34.6666C39.3336 34.976 39.2106 35.2728 38.9918 35.4916C38.7731 35.7104 38.4763 35.8333 38.1669 35.8333Z" fill="#0C5273"/>
<path d="M0.5 8C0.5 3.85786 3.85786 0.5 8 0.5H52C56.1421 0.5 59.5 3.85786 59.5 8V52C59.5 56.1421 56.1421 59.5 52 59.5H8C3.85786 59.5 0.5 56.1421 0.5 52V8Z" stroke="#E5F1F7"/>
</svg>
