<svg width="28" height="28" viewBox="0 0 28 28" fill="none" xmlns="http://www.w3.org/2000/svg">
<path d="M4 4.35008V23.6489C4.00013 23.6908 4.01262 23.7317 4.0359 23.7665C4.05918 23.8013 4.09222 23.8285 4.13087 23.8446C4.16952 23.8607 4.21206 23.865 4.25317 23.857C4.29427 23.849 4.3321 23.8291 4.36191 23.7997L14.4106 14L4.36191 4.19933C4.3321 4.16993 4.29427 4.14999 4.25317 4.14201C4.21206 4.13403 4.16952 4.13836 4.13087 4.15446C4.09222 4.17056 4.05918 4.19771 4.0359 4.23251C4.01262 4.26731 4.00013 4.30821 4 4.35008ZM18.6239 9.97327L6.02417 3.03157L6.01631 3.02715C5.79926 2.9093 5.59301 3.20296 5.77078 3.37385L15.6476 12.818L18.6239 9.97327ZM5.77176 24.6262C5.59301 24.797 5.79926 25.0907 6.01729 24.9728L6.02515 24.9684L18.6239 18.0267L15.6476 15.181L5.77176 24.6262ZM23.7104 12.7723L20.1919 10.8346L16.8836 14L20.1919 17.1639L23.7104 15.2277C24.6674 14.6988 24.6674 13.3012 23.7104 12.7723Z" fill="white"/>
</svg>
