<svg width="51" height="65" viewBox="0 0 51 65" fill="none" xmlns="http://www.w3.org/2000/svg">
<circle opacity="0.2" cx="29.9679" cy="17.3578" r="17.2921" fill="#89DCFF"/>
<path d="M45.0747 50.2989L42.0012 36.4806C42.3192 37.4919 42.9506 38.3758 43.804 39.0047C44.6575 39.6335 45.6888 39.9747 46.7489 39.9789C47.0802 39.9789 47.398 39.8473 47.6323 39.6129C47.8667 39.3786 47.9983 39.0608 47.9983 38.7295V31.2331C47.9983 30.9017 47.8667 30.5839 47.6323 30.3496C47.398 30.1153 47.0802 29.9837 46.7489 29.9837C45.4234 29.9837 44.1523 30.5102 43.215 31.4474C42.2778 32.3847 41.7513 33.6558 41.7513 34.9813C41.7267 35.1972 41.7267 35.4151 41.7513 35.631L40.5019 29.4339C40.3749 28.8703 40.0566 28.368 39.601 28.0126C39.1454 27.6573 38.5807 27.4708 38.0031 27.4849H33.0055C32.3428 27.4849 31.7072 27.7481 31.2386 28.2168C30.7699 28.6854 30.5067 29.321 30.5067 29.9837C30.5067 30.6464 30.7699 31.282 31.2386 31.7506C31.7072 32.2192 32.3428 32.4825 33.0055 32.4825H36.004L36.9286 36.7304C35.4439 35.5941 33.6257 34.9793 31.7561 34.9813H26.7585C25.1087 34.9871 23.4941 35.4594 22.1014 36.3437C20.7086 37.228 19.5943 38.4883 18.8872 39.9789H5.51865C4.19321 39.9789 2.92205 40.5054 1.98481 41.4427C1.04758 42.3799 0.52105 43.651 0.52105 44.9765C0.52105 46.3019 1.04758 47.5731 1.98481 48.5103C2.92205 49.4476 4.19321 49.9741 5.51865 49.9741H8.01746C6.64224 49.9702 5.29246 50.3447 4.11583 51.0566C2.93921 51.7685 1.98108 52.7904 1.34632 54.0104C0.711558 55.2303 0.424617 56.6014 0.5169 57.9735C0.609182 59.3456 1.07713 60.6659 1.86954 61.7899C2.66195 62.9139 3.74827 63.7982 5.00962 64.3462C6.27098 64.8941 7.65875 65.0845 9.02107 64.8965C10.3834 64.7085 11.6677 64.1494 12.7336 63.2804C13.7994 62.4114 14.6057 61.2659 15.0641 59.9693H28.4327C30.4202 59.9676 32.3256 59.1766 33.7301 57.7704L35.7042 55.7963C35.3702 57.2244 35.4624 58.7191 35.9695 60.0953C36.4765 61.4715 37.3761 62.6687 38.5569 63.5387C39.7376 64.4087 41.1477 64.9132 42.6123 64.9898C44.0769 65.0663 45.5319 64.7116 46.7969 63.9694C48.0619 63.2273 49.0814 62.1303 49.7292 60.8145C50.377 59.4987 50.6245 58.0217 50.4412 56.5666C50.2579 55.1114 49.6518 53.742 48.6979 52.628C47.744 51.5139 46.4842 50.7041 45.0747 50.2989ZM8.01746 59.9693C7.52324 59.9693 7.04012 59.8228 6.6292 59.5482C6.21827 59.2736 5.89799 58.8834 5.70886 58.4268C5.51974 57.9702 5.47025 57.4677 5.56667 56.983C5.66308 56.4983 5.90107 56.053 6.25054 55.7036C6.6 55.3541 7.04524 55.1161 7.52996 55.0197C8.01468 54.9233 8.51711 54.9728 8.97371 55.1619C9.4303 55.351 9.82056 55.6713 10.0951 56.0822C10.3697 56.4932 10.5163 56.9763 10.5163 57.4705C10.5163 58.1332 10.253 58.7688 9.78438 59.2374C9.31576 59.706 8.68018 59.9693 8.01746 59.9693ZM43.0007 59.9693C42.5065 59.9693 42.0233 59.8228 41.6124 59.5482C41.2015 59.2736 40.8812 58.8834 40.6921 58.4268C40.503 57.9702 40.4535 57.4677 40.5499 56.983C40.6463 56.4983 40.8843 56.053 41.2338 55.7036C41.5832 55.3541 42.0285 55.1161 42.5132 55.0197C42.9979 54.9233 43.5003 54.9728 43.9569 55.1619C44.4135 55.351 44.8038 55.6713 45.0784 56.0822C45.3529 56.4932 45.4995 56.9763 45.4995 57.4705C45.4995 58.1332 45.2362 58.7688 44.7676 59.2374C44.299 59.706 43.6634 59.9693 43.0007 59.9693Z" fill="#0C5273"/>
</svg>
