<svg width="44" height="52" viewBox="0 0 44 52" fill="none" xmlns="http://www.w3.org/2000/svg">
<circle opacity="0.2" cx="26.006" cy="17.2921" r="17.2921" fill="#89DCFF"/>
<path d="M39.0713 33.6696L36.2628 25.1472C35.8375 23.9305 35.0487 22.8777 34.0055 22.1347C32.9624 21.3916 31.7166 20.9951 30.4408 21.0001H11.6833C10.399 20.9938 9.14495 21.3943 8.09713 22.1455C7.04932 22.8967 6.2603 23.9609 5.84077 25.1887L3.09377 33.6696C2.35271 33.9871 1.7204 34.5182 1.27566 35.1966C0.830926 35.8751 0.593429 36.6709 0.592773 37.485V43.7057C0.597092 44.4294 0.788585 45.1394 1.14822 45.7651C1.50785 46.3908 2.02311 46.9104 2.64277 47.2723V49.9264C2.64277 50.4764 2.85875 51.0038 3.2432 51.3927C3.62765 51.7815 4.14908 52 4.69277 52C5.23647 52 5.75789 51.7815 6.14234 51.3927C6.52679 51.0038 6.74277 50.4764 6.74277 49.9264V47.8529H35.4428V49.9264C35.4428 50.4764 35.6588 51.0038 36.0432 51.3927C36.4277 51.7815 36.9491 52 37.4928 52C38.0365 52 38.5579 51.7815 38.9423 51.3927C39.3268 51.0038 39.5428 50.4764 39.5428 49.9264V47.2723C40.1624 46.9104 40.6777 46.3908 41.0373 45.7651C41.397 45.1394 41.5885 44.4294 41.5928 43.7057V37.485C41.5904 36.6686 41.3499 35.8711 40.9013 35.1923C40.4528 34.5136 39.8162 33.9839 39.0713 33.6696ZM9.73577 26.4743C9.87478 26.0412 10.1508 25.6665 10.5213 25.4079C10.8918 25.1493 11.3362 25.0213 11.7858 25.0435H30.5433C30.9903 25.0199 31.4327 25.145 31.8029 25.3996C32.173 25.6542 32.4506 26.0244 32.5933 26.4536L34.6433 33.3378H7.52177L9.73577 26.4743ZM10.2483 40.9893C9.91086 41.331 9.46614 41.5428 8.99084 41.5882C8.51555 41.6336 8.03948 41.5098 7.64477 41.2382C7.30826 41.0129 7.05012 40.6866 6.90677 40.305C6.74276 39.942 6.68581 39.5388 6.74277 39.1438C6.81857 38.7322 7.01582 38.3534 7.30855 38.0573C7.60128 37.7612 7.97579 37.5617 8.38277 37.485C8.78253 37.4061 9.19646 37.4494 9.57177 37.6094C9.94896 37.7544 10.2716 38.0155 10.4943 38.3559C10.7628 38.7551 10.8852 39.2367 10.8403 39.7174C10.7954 40.1982 10.586 40.648 10.2483 40.9893ZM34.8483 40.9893C34.5109 41.331 34.0661 41.5428 33.5908 41.5882C33.1155 41.6336 32.6395 41.5098 32.2448 41.2382C31.9083 41.0129 31.6501 40.6866 31.5068 40.305C31.3428 39.942 31.2858 39.5388 31.3428 39.1438C31.4186 38.7322 31.6158 38.3534 31.9085 38.0573C32.2013 37.7612 32.5758 37.5617 32.9828 37.485C33.3825 37.4061 33.7965 37.4494 34.1718 37.6094C34.549 37.7544 34.8716 38.0155 35.0943 38.3559C35.3628 38.7551 35.4852 39.2367 35.4403 39.7174C35.3954 40.1982 35.186 40.648 34.8483 40.9893Z" fill="#0C5273"/>
</svg>
