<svg width="41" height="41" viewBox="0 0 41 41" fill="none" xmlns="http://www.w3.org/2000/svg">
<circle cx="20.0312" cy="20.8018" r="20" fill="#0078AD"/>
<path d="M20.3612 17.6218V14.8018H12.9012C12.4044 14.8044 11.9288 15.0036 11.5783 15.3559C11.2279 15.7082 11.0312 16.1849 11.0313 16.6818V28.9218C11.0312 29.4186 11.2279 29.8953 11.5783 30.2476C11.9288 30.5999 12.4044 30.7991 12.9012 30.8018H23.1613C23.6581 30.7991 24.1337 30.5999 24.4842 30.2476C24.8346 29.8953 25.0313 29.4186 25.0312 28.9218V19.5118H22.2312C21.9844 19.5104 21.7402 19.4605 21.5126 19.3648C21.285 19.2691 21.0785 19.1296 20.9048 18.9541C20.7312 18.7786 20.5938 18.5706 20.5005 18.342C20.4073 18.1134 20.3599 17.8686 20.3612 17.6218ZM28.4412 14.3918L25.4412 11.3918C25.0679 11.0162 24.5608 10.804 24.0312 10.8018H16.0312C15.5008 10.8018 14.9921 11.0125 14.617 11.3875C14.242 11.7626 14.0312 12.2713 14.0312 12.8018H21.0312C21.8266 12.8025 22.5892 13.119 23.1512 13.6818L26.1513 16.6818C26.714 17.2438 27.0306 18.0064 27.0312 18.8018V27.8018C27.5617 27.8018 28.0704 27.591 28.4455 27.216C28.8205 26.8409 29.0312 26.3322 29.0312 25.8018V15.8018C29.029 15.2722 28.8168 14.7651 28.4412 14.3918Z" fill="white"/>
</svg>
