<svg width="51" height="68" viewBox="0 0 51 68" fill="none" xmlns="http://www.w3.org/2000/svg">
<g clip-path="url(#clip0_2825_73064)">
<g opacity="0.8">
<path d="M48.7853 38.9016C48.5007 39.6806 48.1519 40.4188 47.7459 41.1107C46.7716 42.7714 45.4721 44.1677 43.9606 45.2472C40.4488 47.7563 35.7939 48.5524 31.4249 46.9709C26.2277 45.0897 22.8894 40.3716 22.5341 35.2102C22.4866 34.5299 22.4913 33.8422 22.5513 33.1521C22.6499 31.9934 22.9029 30.8283 23.3205 29.6839C23.6586 28.7582 24.0879 27.8912 24.5943 27.0905C24.5999 27.0812 24.606 27.0724 24.6116 27.0632C26.0179 24.8514 28.0155 23.1439 30.3129 22.0736C30.9645 21.7698 31.6407 21.5174 32.3346 21.3197C32.6653 21.2252 33.0011 21.1433 33.3387 21.0747C35.7092 20.5889 38.2397 20.7302 40.6818 21.6142C41.0055 21.7314 41.3222 21.8597 41.6311 21.9986C42.0673 22.1936 42.4882 22.4099 42.8933 22.6451C44.5996 23.6357 46.0274 24.9653 47.1222 26.513H47.1227C47.805 27.4767 48.357 28.5248 48.7658 29.6283C48.9807 30.2082 49.156 30.8028 49.2895 31.409C49.3727 31.7864 49.4397 32.1671 49.4904 32.5524C49.6123 33.4772 49.6374 34.4206 49.5611 35.369C49.4653 36.5486 49.2109 37.736 48.7853 38.9026V38.9016Z" fill="#D7E5FF"/>
<path d="M33.7986 27.0521C32.9982 27.6694 33.2102 29.3213 31.8243 28.3905C30.4384 27.4592 29.5687 26.953 29.1762 27.7657C28.7832 28.5785 30.0114 29.0231 29.6882 29.9085C29.365 30.794 28.7074 30.8876 28.0144 30.1605C27.3205 29.4334 27.3005 28.7336 26.1778 28.7568C25.0546 28.7799 24.5756 28.3201 24.6305 27.4805C24.6398 27.3327 24.6249 27.2049 24.5938 27.091C24.5993 27.0817 24.6054 27.0729 24.611 27.0637C26.0174 24.8519 28.0149 23.1444 30.3123 22.0741C30.9639 21.7703 31.6401 21.5179 32.334 21.3202C32.6647 21.2257 33.0005 21.1437 33.3381 21.0752C33.7297 21.2336 34.1497 21.555 34.372 22.1996C34.8608 23.6181 35.6538 23.2842 34.9803 24.4726C34.3064 25.6604 34.5841 25.9522 35.3189 26.1703C36.0542 26.3884 36.9011 26.695 36.7858 27.2739C36.6699 27.8528 34.5994 26.4343 33.7986 27.0521Z" fill="#AEC3FF"/>
<path d="M48.784 38.9018C48.4994 39.6807 48.1506 40.4189 47.7445 41.1108C46.7702 42.7715 45.4708 44.1678 43.9593 45.2473C43.5826 45.2357 43.2398 45.1084 42.951 44.8518C41.5939 43.6445 43.3924 42.3626 44.3392 41.7383C45.2861 41.1145 43.5282 40.9075 42.6417 39.6918C41.7553 38.4762 43.8309 36.8284 42.4971 36.7395C41.1632 36.6506 39.541 36.5645 39.2694 35.1418C38.9978 33.7191 40.401 34.0118 40.1554 32.8133C39.9099 31.6147 41.0702 31.3901 42.3115 31.7324C43.5528 32.0741 43.7058 31.1632 45.2443 31.5768C46.7832 31.9903 46.0586 33.8761 47.7562 34.3476C49.4537 34.819 49.2407 35.1714 49.2407 35.1714C49.3607 35.2113 49.4672 35.2779 49.5593 35.3682C49.4635 36.5478 49.2091 37.7352 48.7835 38.9018H48.784Z" fill="#AEC3FF"/>
<path d="M49.4896 32.5516C47.8735 32.7197 47.9828 30.7107 46.6108 30.8302C45.2272 30.9502 45.8192 29.9707 45.1346 28.9593C44.4491 27.9478 42.14 28.4962 42.6093 27.4722C43.0785 26.4492 44.3682 27.2495 44.9723 26.514C45.5765 25.7782 46.8545 26.4793 46.8545 26.4793C46.9419 26.4779 47.0312 26.489 47.1215 26.5127C47.1215 26.5127 47.1215 26.5122 47.1219 26.5127C47.8042 27.4764 48.3562 28.5239 48.765 29.628C48.9799 30.2078 49.1552 30.8024 49.2887 31.4087C49.372 31.7861 49.4389 32.1668 49.4896 32.5521V32.5516Z" fill="#AEC3FF"/>
<path d="M39.2486 24.7289C39.2486 24.7289 40.3457 23.9555 39.3142 23.2363C38.2822 22.5175 38.1575 22.9246 37.3032 22.5083C36.4484 22.0919 35.8489 22.6509 36.2428 23.6406C36.6363 24.6302 36.6521 26.2618 37.5348 25.7148C38.4175 25.1679 38.5128 24.5459 39.2491 24.7289H39.2486Z" fill="#AEC3FF"/>
</g>
<path d="M27.0692 18.2639C28.8914 16.1336 31.7009 11.8545 33.5924 9.66351C33.9817 9.21245 33.658 8.51639 33.0608 8.51639H29.6188L32.8655 1.20575C33.0041 0.89361 32.5772 0.644921 32.3716 0.918155L24.5211 11.3807C24.2923 11.6859 24.5425 12.1157 24.9224 12.0689L28.8193 11.591L26.5009 17.9328C26.3735 18.282 26.8274 18.5464 27.0692 18.2635V18.2639Z" fill="#F77D48"/>
<path d="M10.8632 31.239C11.2729 29.1453 11.532 25.2571 11.965 23.0971C12.0543 22.6525 11.5775 22.3108 11.1808 22.533L8.89452 23.8149L8.3048 17.7501C8.27968 17.4912 7.90251 17.4852 7.86902 17.7431L6.58494 27.6161C6.54774 27.9042 6.87515 28.0964 7.11001 27.9236L9.51865 26.155L10.3609 31.2307C10.4074 31.51 10.8083 31.5164 10.8627 31.2386L10.8632 31.239Z" fill="#AEC3FF"/>
<path d="M45.1388 63.1758L5.96861 66.462C2.99444 66.7116 0.842065 63.6921 2.05964 60.9788L18.6545 23.9963C19.9135 21.1907 23.7834 20.8661 25.4958 23.4225L48.0711 57.1188C49.7277 59.5913 48.113 62.9266 45.1388 63.1762V63.1758Z" fill="#E6EFFF"/>
<path d="M45.2634 64.6505L6.09324 67.9368C4.16689 68.0984 2.34844 67.2579 1.22946 65.6879C0.110484 64.118 -0.0867091 62.1317 0.702062 60.3742L17.297 23.3912C18.1122 21.574 19.7884 20.3893 21.7803 20.2221C23.7722 20.055 25.6237 20.9437 26.7329 22.5998L49.3082 56.2961C50.3812 57.8975 50.5207 59.8889 49.6812 61.6227C48.8418 63.3566 47.1903 64.4885 45.2639 64.6501L45.2634 64.6505ZM22.03 23.1731C21.1334 23.2481 20.379 23.7816 20.0121 24.5995L3.41672 61.582C3.06186 62.373 3.15069 63.2672 3.65437 63.9735C4.15805 64.6802 4.97659 65.0585 5.84349 64.9858L45.0137 61.6996C45.8806 61.6269 46.6243 61.1175 47.0019 60.3372C47.3796 59.5568 47.3172 58.6602 46.834 57.9396L24.2592 24.2429C23.7597 23.4977 22.9267 23.0976 22.03 23.1726V23.1731Z" fill="#F77D48"/>
<path d="M21.1116 57.5167C21.0693 57.0142 21.1195 56.5418 21.2642 56.1C21.4083 55.6587 21.6316 55.2678 21.9343 54.9279C22.2371 54.5884 22.612 54.311 23.0598 54.097C23.5072 53.8836 24.0212 53.7516 24.6011 53.7029C25.1806 53.6543 25.7136 53.6983 26.1982 53.8335C26.6833 53.9692 27.1037 54.1799 27.459 54.4643C27.8148 54.7491 28.1003 55.0974 28.3166 55.5081C28.5329 55.9199 28.6622 56.3765 28.7049 56.8794C28.7473 57.3819 28.6961 57.8506 28.5515 58.2845C28.4068 58.7189 28.1831 59.1056 27.8804 59.4455C27.5776 59.7854 27.1986 60.0628 26.7432 60.2772C26.2879 60.4917 25.7703 60.6237 25.1904 60.6723C24.6104 60.7209 24.0816 60.6769 23.6049 60.5408C23.1277 60.4046 22.7115 60.1939 22.3557 59.9091C22.0004 59.6247 21.7144 59.2806 21.499 58.8763C21.2832 58.4725 21.1544 58.0191 21.1116 57.5167ZM27.1674 50.4603L21.5251 50.9335L19.1016 31.8039L26.3424 31.1963L27.1674 50.4603Z" fill="#F77D48"/>
</g>
<defs>
<clipPath id="clip0_2825_73064">
<rect width="50" height="67.1541" fill="white" transform="translate(0.224609 0.801758)"/>
</clipPath>
</defs>
</svg>
