<svg width="40" height="40" viewBox="0 0 40 40" fill="none" xmlns="http://www.w3.org/2000/svg">
<circle cx="20" cy="20" r="19.6667" fill="#E5F1F7" stroke="#E5F1F7" stroke-width="0.666667"/>
<path d="M15.3337 11.8333H11.8337C11.5242 11.8333 11.2275 11.9562 11.0087 12.175C10.7899 12.3938 10.667 12.6906 10.667 13V27C10.667 27.3094 10.7899 27.6061 11.0087 27.8249C11.2275 28.0437 11.5242 28.1666 11.8337 28.1666H15.3337C15.6431 28.1666 15.9398 28.0437 16.1586 27.8249C16.3774 27.6061 16.5003 27.3094 16.5003 27V13C16.5003 12.6906 16.3774 12.3938 16.1586 12.175C15.9398 11.9562 15.6431 11.8333 15.3337 11.8333ZM20.0003 8.33331C19.6909 8.33331 19.3942 8.45623 19.1754 8.67502C18.9566 8.89381 18.8337 9.19056 18.8337 9.49998V30.5C18.8337 30.8094 18.9566 31.1061 19.1754 31.3249C19.3942 31.5437 19.6909 31.6666 20.0003 31.6666C20.3097 31.6666 20.6065 31.5437 20.8253 31.3249C21.0441 31.1061 21.167 30.8094 21.167 30.5V9.49998C21.167 9.19056 21.0441 8.89381 20.8253 8.67502C20.6065 8.45623 20.3097 8.33331 20.0003 8.33331ZM28.167 11.8333H24.667C24.3576 11.8333 24.0608 11.9562 23.842 12.175C23.6232 12.3938 23.5003 12.6906 23.5003 13V27C23.5003 27.3094 23.6232 27.6061 23.842 27.8249C24.0608 28.0437 24.3576 28.1666 24.667 28.1666H28.167C28.4764 28.1666 28.7732 28.0437 28.992 27.8249C29.2107 27.6061 29.3337 27.3094 29.3337 27V13C29.3337 12.6906 29.2107 12.3938 28.992 12.175C28.7732 11.9562 28.4764 11.8333 28.167 11.8333Z" fill="#0078AD"/>
</svg>
