<svg width="40" height="40" viewBox="0 0 40 40" fill="none" xmlns="http://www.w3.org/2000/svg">
<circle cx="20" cy="20" r="20" fill="#E5F1F7"/>
<path d="M24.8187 15.1816C24.1009 14.9632 23.4723 14.5198 23.0256 13.9169C22.5789 13.3141 22.3378 12.5836 22.3378 11.8333C22.3378 11.083 22.5789 10.3526 23.0256 9.74969C23.4723 9.14682 24.1009 8.70346 24.8187 8.48498C24.8309 8.43195 24.8506 8.3809 24.877 8.33331H14.167C13.2387 8.33331 12.3485 8.70206 11.6921 9.35844C11.0357 10.0148 10.667 10.9051 10.667 11.8333V28.1666C10.667 29.0949 11.0357 29.9851 11.6921 30.6415C12.3485 31.2979 13.2387 31.6666 14.167 31.6666H25.8337C26.7619 31.6666 27.6522 31.2979 28.3085 30.6415C28.9649 29.9851 29.3337 29.0949 29.3337 28.1666V17.4683C28.8846 17.6249 28.4083 17.6884 27.9338 17.6548C27.4594 17.6212 26.9968 17.4912 26.5742 17.2728C26.1517 17.0545 25.7781 16.7523 25.4763 16.3847C25.1744 16.0171 24.9507 15.5919 24.8187 15.135V15.1816ZM15.3337 13H18.8337C19.1431 13 19.4398 13.1229 19.6586 13.3417C19.8774 13.5605 20.0003 13.8572 20.0003 14.1666C20.0003 14.4761 19.8774 14.7728 19.6586 14.9916C19.4398 15.2104 19.1431 15.3333 18.8337 15.3333H15.3337C15.0242 15.3333 14.7275 15.2104 14.5087 14.9916C14.2899 14.7728 14.167 14.4761 14.167 14.1666C14.167 13.8572 14.2899 13.5605 14.5087 13.3417C14.7275 13.1229 15.0242 13 15.3337 13ZM24.667 27H15.3337C15.0242 27 14.7275 26.8771 14.5087 26.6583C14.2899 26.4395 14.167 26.1427 14.167 25.8333C14.167 25.5239 14.2899 25.2271 14.5087 25.0084C14.7275 24.7896 15.0242 24.6666 15.3337 24.6666H24.667C24.9764 24.6666 25.2732 24.7896 25.492 25.0084C25.7107 25.2271 25.8337 25.5239 25.8337 25.8333C25.8337 26.1427 25.7107 26.4395 25.492 26.6583C25.2732 26.8771 24.9764 27 24.667 27ZM24.667 21.1666H15.3337C15.0242 21.1666 14.7275 21.0437 14.5087 20.8249C14.2899 20.6061 14.167 20.3094 14.167 20C14.167 19.6906 14.2899 19.3938 14.5087 19.175C14.7275 18.9562 15.0242 18.8333 15.3337 18.8333H24.667C24.9764 18.8333 25.2732 18.9562 25.492 19.175C25.7107 19.3938 25.8337 19.6906 25.8337 20C25.8337 20.3094 25.7107 20.6061 25.492 20.8249C25.2732 21.0437 24.9764 21.1666 24.667 21.1666ZM30.5003 10.6666H29.3337V9.49998C29.3337 9.19056 29.2107 8.89381 28.992 8.67502C28.7732 8.45623 28.4764 8.33331 28.167 8.33331C27.8576 8.33331 27.5608 8.45623 27.342 8.67502C27.1232 8.89381 27.0003 9.19056 27.0003 9.49998V10.6666H25.8337C25.5242 10.6666 25.2275 10.7896 25.0087 11.0084C24.7899 11.2271 24.667 11.5239 24.667 11.8333C24.667 12.1427 24.7899 12.4395 25.0087 12.6583C25.2275 12.8771 25.5242 13 25.8337 13H27.0003V14.1666C27.0003 14.4761 27.1232 14.7728 27.342 14.9916C27.5608 15.2104 27.8576 15.3333 28.167 15.3333C28.4764 15.3333 28.7732 15.2104 28.992 14.9916C29.2107 14.7728 29.3337 14.4761 29.3337 14.1666V13H30.5003C30.8097 13 31.1065 12.8771 31.3253 12.6583C31.5441 12.4395 31.667 12.1427 31.667 11.8333C31.667 11.5239 31.5441 11.2271 31.3253 11.0084C31.1065 10.7896 30.8097 10.6666 30.5003 10.6666Z" fill="#0078AD"/>
</svg>
