<svg width="40" height="40" viewBox="0 0 40 40" fill="none" xmlns="http://www.w3.org/2000/svg">
<circle cx="20" cy="20" r="20" fill="#E5F1F7"/>
<path d="M15.3337 21.1667V15.3333C15.3337 14.4051 15.7024 13.5148 16.3588 12.8585C17.0152 12.2021 17.9054 11.8333 18.8337 11.8333H24.457C24.2163 11.1525 23.7709 10.5628 23.1819 10.1451C22.5929 9.72736 21.8891 9.50203 21.167 9.5H14.167C13.2387 9.5 12.3485 9.86875 11.6921 10.5251C11.0357 11.1815 10.667 12.0717 10.667 13V28.1667C10.667 29.0949 11.0357 29.9852 11.6921 30.6415C12.3485 31.2979 13.2387 31.6667 14.167 31.6667H21.167C22.0953 31.6667 22.9855 31.2979 23.6419 30.6415C24.2982 29.9852 24.667 29.0949 24.667 28.1667V24.6667H18.8337C17.9054 24.6667 17.0152 24.2979 16.3588 23.6415C15.7024 22.9852 15.3337 22.0949 15.3337 21.1667ZM17.667 29.3333C17.4362 29.3333 17.2107 29.2649 17.0188 29.1367C16.827 29.0085 16.6774 28.8263 16.5891 28.6131C16.5008 28.3999 16.4777 28.1654 16.5227 27.9391C16.5678 27.7127 16.6789 27.5049 16.842 27.3417C17.0052 27.1785 17.2131 27.0674 17.4394 27.0224C17.6657 26.9774 17.9003 27.0005 18.1135 27.0888C18.3266 27.1771 18.5088 27.3266 18.637 27.5185C18.7652 27.7104 18.8337 27.9359 18.8337 28.1667C18.8337 28.4761 18.7107 28.7728 18.492 28.9916C18.2732 29.2104 17.9764 29.3333 17.667 29.3333Z" fill="#0078AD"/>
<path d="M26.1667 13H18.8333C18.3471 13 17.8808 13.1932 17.537 13.537C17.1932 13.8808 17 14.3471 17 14.8333V22.1667C17 22.6529 17.1932 23.1192 17.537 23.463C17.8808 23.8068 18.3471 24 18.8333 24H26.1667C26.6529 24 27.1192 23.8068 27.463 23.463C27.8068 23.1192 28 22.6529 28 22.1667V14.8333C28 14.3471 27.8068 13.8808 27.463 13.537C27.1192 13.1932 26.6529 13 26.1667 13ZM24.2478 17.2778H24.9444C25.1065 17.2778 25.262 17.3422 25.3766 17.4568C25.4912 17.5714 25.5556 17.7268 25.5556 17.8889C25.5556 18.051 25.4912 18.2064 25.3766 18.321C25.262 18.4356 25.1065 18.5 24.9444 18.5H24.2478C24.1443 18.8936 23.9443 19.2551 23.6657 19.5517C23.3872 19.8484 23.039 20.0708 22.6528 20.1989L24.0339 21.03C24.149 21.0983 24.2386 21.2026 24.2887 21.3267C24.3388 21.4509 24.3468 21.588 24.3114 21.7172C24.276 21.8463 24.1992 21.9602 24.0927 22.0414C23.9863 22.1226 23.8561 22.1666 23.7222 22.1667C23.6125 22.1666 23.5049 22.1371 23.4106 22.0811L20.355 20.2478C20.355 20.2478 20.3183 20.2111 20.3 20.1989C20.2652 20.1752 20.2343 20.1464 20.2083 20.1133L20.1411 20.0217C20.1212 19.9867 20.1049 19.9499 20.0922 19.9117C20.0888 19.871 20.0888 19.8301 20.0922 19.7894L20.0556 19.7222C20.0556 19.7222 20.0556 19.7222 20.0556 19.6794C20.0527 19.6408 20.0527 19.602 20.0556 19.5633C20.0661 19.5234 20.0804 19.4845 20.0983 19.4472C20.0983 19.4472 20.0983 19.4472 20.0983 19.4106C20.0983 19.3739 20.135 19.3739 20.1472 19.3556C20.1709 19.3208 20.1997 19.2899 20.2328 19.2639C20.2629 19.2381 20.2957 19.2155 20.3306 19.1967L20.4283 19.1478H20.5567L20.6667 19.1111H21.8889C22.1022 19.1098 22.3114 19.0527 22.4958 18.9455C22.6802 18.8383 22.8334 18.6847 22.94 18.5H20.0556C19.8935 18.5 19.738 18.4356 19.6234 18.321C19.5088 18.2064 19.4444 18.051 19.4444 17.8889C19.4444 17.7268 19.5088 17.5714 19.6234 17.4568C19.738 17.3422 19.8935 17.2778 20.0556 17.2778H22.94C22.8334 17.0931 22.6802 16.9395 22.4958 16.8322C22.3114 16.725 22.1022 16.668 21.8889 16.6667H20.0556C19.8935 16.6667 19.738 16.6023 19.6234 16.4877C19.5088 16.3731 19.4444 16.2176 19.4444 16.0556C19.4444 15.8935 19.5088 15.738 19.6234 15.6234C19.738 15.5088 19.8935 15.4444 20.0556 15.4444H24.9444C25.1065 15.4444 25.262 15.5088 25.3766 15.6234C25.4912 15.738 25.5556 15.8935 25.5556 16.0556C25.5556 16.2176 25.4912 16.3731 25.3766 16.4877C25.262 16.6023 25.1065 16.6667 24.9444 16.6667H23.9911C24.1051 16.8572 24.1915 17.063 24.2478 17.2778Z" fill="#0078AD"/>
</svg>
