<svg width="40" height="40" viewBox="0 0 40 40" fill="none" xmlns="http://www.w3.org/2000/svg">
<circle cx="20" cy="20" r="20" fill="#E5F1F7"/>
<path d="M28.1663 14.1667C28.1663 13.5478 27.9205 12.9543 27.4829 12.5168C27.0453 12.0792 26.4518 11.8333 25.833 11.8333H14.1663C13.5475 11.8333 12.954 12.0792 12.5164 12.5168C12.0788 12.9543 11.833 13.5478 11.833 14.1667V20H28.1663V14.1667ZM30.4997 16.5C30.1903 16.5 29.8935 16.6229 29.6747 16.8417C29.4559 17.0605 29.333 17.3573 29.333 17.6667V21.1667H10.6663V17.6667C10.6663 17.3573 10.5434 17.0605 10.3246 16.8417C10.1058 16.6229 9.80909 16.5 9.49967 16.5C9.19026 16.5 8.89351 16.6229 8.67472 16.8417C8.45592 17.0605 8.33301 17.3573 8.33301 17.6667V24.6667C8.33301 24.9761 8.45592 25.2728 8.67472 25.4916C8.89351 25.7104 9.19026 25.8333 9.49967 25.8333H10.6663V27C10.6663 27.3094 10.7893 27.6062 11.008 27.825C11.2268 28.0438 11.5236 28.1667 11.833 28.1667C12.1424 28.1667 12.4392 28.0438 12.658 27.825C12.8768 27.6062 12.9997 27.3094 12.9997 27V25.8333H26.9997V27C26.9997 27.3094 27.1226 27.6062 27.3414 27.825C27.5602 28.0438 27.8569 28.1667 28.1663 28.1667C28.4758 28.1667 28.7725 28.0438 28.9913 27.825C29.2101 27.6062 29.333 27.3094 29.333 27V25.8333H30.4997C30.8091 25.8333 31.1058 25.7104 31.3246 25.4916C31.5434 25.2728 31.6663 24.9761 31.6663 24.6667V17.6667C31.6663 17.3573 31.5434 17.0605 31.3246 16.8417C31.1058 16.6229 30.8091 16.5 30.4997 16.5Z" fill="#0078AD"/>
</svg>
