<svg width="32" height="32" viewBox="0 0 32 32" fill="none" xmlns="http://www.w3.org/2000/svg">
<circle cx="16" cy="16" r="16" fill="#0C5273"/>
<path d="M16.2414 14.5756C15.9164 14.9006 15.9164 15.4256 16.2414 15.7506C16.9664 16.4756 17.0747 17.5506 16.4914 18.1423L13.9331 20.7006C13.6664 20.9756 13.2831 21.1006 12.8497 21.0756C12.3747 21.0423 11.9164 20.8256 11.5497 20.4506C11.1831 20.0839 10.9581 19.6173 10.9331 19.1506C10.8997 18.7173 11.0331 18.3339 11.3081 18.0673L12.3747 17.0006C12.6997 16.6756 12.6997 16.1506 12.3747 15.8256C12.0497 15.5006 11.5247 15.5006 11.1997 15.8256L10.1331 16.8923C9.51639 17.5089 9.21639 18.3506 9.27472 19.2673C9.33306 20.1423 9.72472 20.9839 10.3831 21.6339C11.0331 22.2839 11.8747 22.6756 12.7497 22.7423C12.8331 22.7423 12.9081 22.7423 12.9914 22.7423C13.8164 22.7423 14.5664 22.4423 15.1331 21.8756L17.6914 19.3173C18.9331 18.0756 18.8164 15.9506 17.4414 14.5673C17.1164 14.2423 16.5914 14.2423 16.2664 14.5673L16.2414 14.5756ZM21.6331 10.3673C20.9831 9.71727 20.1414 9.3256 19.2664 9.25894C18.3497 9.19227 17.4997 9.5006 16.8914 10.1173L14.3331 12.6756C13.7164 13.2923 13.4164 14.1339 13.4747 15.0506C13.5331 15.9256 13.9247 16.7673 14.5831 17.4173C14.7497 17.5839 14.9581 17.6589 15.1747 17.6589C15.3914 17.6589 15.5997 17.5756 15.7664 17.4173C16.0914 17.0923 16.0914 16.5673 15.7664 16.2423C15.3997 15.8756 15.1747 15.4089 15.1497 14.9423C15.1164 14.5089 15.2497 14.1256 15.5247 13.8589L18.0831 11.3006C18.3581 11.0256 18.7414 10.9006 19.1664 10.9256C19.6414 10.9589 20.0997 11.1756 20.4664 11.5506C20.8331 11.9173 21.0581 12.3839 21.0831 12.8506C21.1164 13.2839 20.9831 13.6673 20.7081 13.9339L19.6414 15.0006C19.3164 15.3256 19.3164 15.8506 19.6414 16.1756C19.9664 16.5006 20.4914 16.5006 20.8164 16.1756L21.8831 15.1089C22.4997 14.4923 22.7997 13.6506 22.7414 12.7339C22.6831 11.8589 22.2914 11.0173 21.6331 10.3673Z" fill="white"/>
</svg>
