<svg width="32" height="32" viewBox="0 0 32 32" fill="none" xmlns="http://www.w3.org/2000/svg">
<circle cx="16" cy="16" r="16" fill="#0C5273"/>
<path d="M22.6667 8.5H9.33333C9.11232 8.5 8.90036 8.5878 8.74408 8.74408C8.5878 8.90036 8.5 9.11232 8.5 9.33333V22.6667C8.5 22.8877 8.5878 23.0996 8.74408 23.2559C8.90036 23.4122 9.11232 23.5 9.33333 23.5H16.5083V17.6667H14.5667V15.4333H16.5083V13.7667C16.4695 13.3699 16.518 12.9695 16.6503 12.5934C16.7826 12.2174 16.9956 11.8748 17.2743 11.5898C17.553 11.3048 17.8906 11.0841 18.2636 10.9434C18.6366 10.8026 19.0358 10.7452 19.4333 10.775C20.0154 10.7598 20.5977 10.7904 21.175 10.8667V12.875H19.9833C19.0417 12.875 18.8583 13.325 18.8583 13.9833V15.425H21.1083L20.8167 17.6667H18.8583V23.5H22.6667C22.8877 23.5 23.0996 23.4122 23.2559 23.2559C23.4122 23.0996 23.5 22.8877 23.5 22.6667V9.33333C23.5 9.11232 23.4122 8.90036 23.2559 8.74408C23.0996 8.5878 22.8877 8.5 22.6667 8.5Z" fill="white"/>
</svg>
