<svg width="32" height="32" viewBox="0 0 32 32" fill="none" xmlns="http://www.w3.org/2000/svg">
<circle cx="16" cy="16" r="16" fill="#0C5273"/>
<path d="M22.3753 11.367C23.091 10.9403 23.6271 10.268 23.8837 9.4753C23.2152 9.87657 22.4821 10.1585 21.717 10.3086C21.2014 9.75977 20.5194 9.39611 19.7764 9.27392C19.0333 9.15172 18.2707 9.2778 17.6066 9.63266C16.9424 9.98751 16.4137 10.5514 16.1023 11.2369C15.7908 11.9225 15.714 12.6916 15.8837 13.4253C14.5254 13.3581 13.1965 13.0058 11.9833 12.3913C10.7701 11.7768 9.69979 10.9139 8.84199 9.85863C8.40826 10.6084 8.27628 11.4952 8.47286 12.3388C8.66944 13.1824 9.17984 13.9195 9.90033 14.4003C9.36808 14.3818 8.848 14.2361 8.38366 13.9753C8.38795 14.7538 8.65668 15.5077 9.14576 16.1133C9.63483 16.719 10.3152 17.1405 11.0753 17.3086C10.581 17.4444 10.062 17.4644 9.55866 17.367C9.77927 18.037 10.2023 18.6221 10.7695 19.0415C11.3367 19.4609 12.0201 19.694 12.7253 19.7086C11.5397 20.7055 10.049 21.2671 8.50033 21.3003C8.22142 21.2957 7.94308 21.2734 7.66699 21.2336C9.23192 22.2329 11.0519 22.7595 12.9087 22.7503C14.1788 22.7624 15.4389 22.524 16.6169 22.0489C17.7949 21.5737 18.8677 20.871 19.7739 19.981C20.6802 19.091 21.4022 18.0311 21.8986 16.8619C22.395 15.6927 22.6561 14.4371 22.667 13.167V12.6003C23.3195 12.111 23.8832 11.5135 24.3337 10.8336C23.7104 11.1061 23.0506 11.2857 22.3753 11.367Z" fill="white"/>
</svg>
