<svg width="32" height="32" viewBox="0 0 32 32" fill="none" xmlns="http://www.w3.org/2000/svg">
<circle cx="16" cy="16" r="16" fill="#0C5273"/>
<path d="M19.6997 17.3495C19.5163 17.2578 18.5747 16.7995 18.3997 16.7328C18.2247 16.6661 18.0997 16.6411 17.9747 16.8328C17.8497 17.0245 17.483 17.4495 17.3663 17.5745C17.2497 17.6995 17.1497 17.7161 16.958 17.5745C16.3957 17.3566 15.8765 17.0406 15.4247 16.6411C15.0005 16.2749 14.6326 15.8481 14.333 15.3745C14.2163 15.1828 14.333 15.0828 14.4163 14.9828C14.4997 14.8828 14.608 14.7661 14.6997 14.6578C14.7773 14.5612 14.8417 14.4547 14.8913 14.3411C14.9206 14.2905 14.936 14.233 14.936 14.1745C14.936 14.116 14.9206 14.0585 14.8913 14.0078C14.8413 13.9161 14.4663 12.9828 14.2997 12.6078C14.133 12.2328 13.983 12.2911 13.8747 12.2911L13.4997 12.2745C13.4037 12.2778 13.3094 12.3001 13.2221 12.3402C13.1348 12.3802 13.0564 12.4372 12.9913 12.5078C12.7761 12.7108 12.6057 12.9565 12.4909 13.2291C12.3761 13.5018 12.3195 13.7954 12.3247 14.0911C12.3865 14.8045 12.6592 15.4833 13.108 16.0411C13.899 17.2823 15.026 18.2735 16.358 18.8995C18.2997 19.6578 18.2997 19.3995 18.6497 19.3661C18.9172 19.3243 19.1726 19.2251 19.3984 19.0756C19.6242 18.926 19.8151 18.7295 19.958 18.4995C20.0835 18.2171 20.1212 17.9036 20.0663 17.5995C20.0247 17.4911 19.8913 17.4495 19.6997 17.3495ZM16.1413 8.08281C15.1244 8.07843 14.1165 8.27467 13.1755 8.6603C12.2345 9.04593 11.3788 9.61337 10.6574 10.3302C9.93596 11.0469 9.363 11.899 8.9713 12.8375C8.5796 13.776 8.37686 14.7825 8.37467 15.7995C8.37044 17.2013 8.75403 18.5771 9.48301 19.7745L8.08301 23.9411L12.383 22.5745C13.5388 23.192 14.831 23.51 16.1413 23.4995C17.1755 23.5335 18.2059 23.3591 19.1713 22.9869C20.1367 22.6146 21.0174 22.0519 21.761 21.3324C22.5046 20.6129 23.0959 19.7512 23.4997 18.7985C23.9035 17.8458 24.1116 16.8217 24.1116 15.787C24.1116 14.7523 23.9035 13.7281 23.4997 12.7755C23.0959 11.8228 22.5046 10.9611 21.761 10.2416C21.0174 9.52202 20.1367 8.95938 19.1713 8.5871C18.2059 8.21481 17.1755 8.04048 16.1413 8.07448V8.08281ZM16.1413 22.2495C14.8649 22.2488 13.6166 21.8751 12.5497 21.1745L10.0497 22.0078L10.883 19.5995C10.0726 18.4981 9.63469 17.1669 9.63301 15.7995C9.6231 14.5052 9.99784 13.2372 10.7097 12.1562C11.4215 11.0753 12.4384 10.2301 13.6313 9.72794C14.8242 9.22577 16.1394 9.08923 17.41 9.33565C18.6806 9.58206 19.8494 10.2003 20.7681 11.112C21.6868 12.0237 22.3141 13.1877 22.5702 14.4564C22.8264 15.7251 22.7 17.0413 22.207 18.238C21.714 19.4347 20.8767 20.4581 19.8012 21.1782C18.7258 21.8983 17.4606 22.2828 16.1663 22.2828L16.1413 22.2495Z" fill="white"/>
</svg>
